<?xml version="1.0" standalone="no"?>
<!DOCTYPE svg PUBLIC "-//W3C//DTD SVG 1.1//EN" "http://www.w3.org/Graphics/SVG/1.1/DTD/svg11.dtd" >
<svg xmlns="http://www.w3.org/2000/svg">
<metadata>Generated by IcoMoon</metadata>
<defs>
<font id="icomoon" horiz-adv-x="1024">
<font-face units-per-em="1024" ascent="960" descent="-64" />
<missing-glyph horiz-adv-x="1024" />
<glyph unicode="&#x20;" horiz-adv-x="512" d="" />
<glyph unicode="&#xe900;" d="M1024 448c0-282.77-229.23-512-512-512s-512 229.23-512 512c0 282.77 229.23 512 512 512s512-229.23 512-512z" />
<glyph unicode="&#xe901;" d="M699.802 266.149c-8.131 8.759-16.559 17.072-24.838 25.089-4.14 4.008-8.279 8.165-12.419 12.322l-36.074 36.223c-15.376 15.439-33.413 23.604-51.894 23.604-18.628 0-36.518-8.165-51.894-23.604-3.696-3.711-7.54-7.423-11.236-11.134-8.575-8.462-17.446-17.221-26.021-26.425-15.228 7.423-30.752 17.666-48.789 31.918-23.507 19.299-43.614 38.598-61.503 59.085-9.61 11.134-26.464 12.322-37.553 2.524-11.088-9.65-12.271-26.573-2.513-37.708 19.811-22.862 42.136-44.388 68.157-65.617 0.148 0 0.148-0.148 0.296-0.148 26.169-20.784 48.197-34.442 71.705-44.091 0.591-0.297 1.183-0.445 1.774-0.594 5.618-1.93 22.472-7.571 39.031 8.907 0.296 0.297 0.739 0.742 1.035 1.039 10.053 11.431 20.698 21.823 31.935 32.957 3.844 3.711 7.688 7.571 11.532 11.431 3.548 3.563 9.019 8.017 14.341 8.017s10.645-4.305 14.341-8.017l36.074-36.223c4.288-4.305 8.723-8.61 12.863-12.767 8.279-8.017 15.967-15.736 23.359-23.604 0.148-0.297 0.444-0.445 0.591-0.594 5.618-5.641 11.68-14.549-0.296-27.316l-45.093-45.279c-9.61-9.65-20.255-14.697-33.709-15.885-22.916-1.93-47.31 2.524-79.097 14.4-52.928 19.596-102.309 49.436-155.681 93.972-64.46 54.186-115.171 119.209-150.95 193.289-12.715 26.87-27.647 62.5-30.16 100.356-1.331 21.081 4.288 36.223 17.889 48.99 9.906 8.313 18.628 17.369 26.908 25.98 5.322 5.641 10.349 10.837 15.672 15.736l0.148 0.148c10.497 10.095 19.22 10.243 28.978 0.445l72.888-73.188c0.148-0.148 0.296-0.297 0.444-0.445 3.105-2.969 6.801-7.571 6.949-12.619 0-5.344-3.992-10.54-7.244-13.955l-45.241-45.427c-10.349-10.392-10.349-27.316 0-37.856 10.349-10.392 27.203-10.392 37.7 0l45.241 45.427c15.228 15.291 23.064 33.254 22.916 52.256-0.148 18.557-8.131 36.075-23.064 50.475l-72.74 73.040c-30.456 30.582-71.853 30.73-103.344 0.445-6.209-5.79-11.828-11.728-17.446-17.518-7.836-8.165-15.228-15.885-23.212-22.565-0.296-0.297-0.591-0.594-1.035-0.891-25.873-23.604-37.7-54.483-35.483-91.894 3.105-46.912 20.403-88.776 35.187-119.952v-0.148c39.179-81.056 94.473-152.018 164.699-211.103 58.103-48.396 112.51-81.205 171.204-103.028 21.585-8.017 53.076-18.112 87.968-18.112 4.583 0 9.314 0.148 14.045 0.594h0.148c25.873 2.227 48.345 12.767 66.826 31.324l45.241 45.427c0.148 0.148 0.296 0.297 0.444 0.445 29.125 30.433 28.978 72.298 0 101.84z" />
<glyph unicode="&#xe902;" d="M683.177 424.030c-9.882 57.972-37.298 110.848-79.217 152.893-41.601 41.727-94.519 69.121-152.697 78.995-15.62 2.707-30.444-7.804-33.153-23.412s7.81-30.419 23.43-33.127c46.223-7.804 88.462-29.782 121.934-63.228s55.468-75.65 63.278-121.837c2.391-14.015 14.505-23.89 28.212-23.89 1.594 0 3.188 0.159 4.782 0.478 15.62 2.707 26.14 17.519 23.43 33.127z" />
<glyph unicode="&#xe903;" d="M835.166 459.135c-14.772 87.193-56.017 166.631-119.055 229.685s-142.456 104.309-229.626 119.085c-14.333 2.487-27.935-7.169-30.422-21.506s7.167-27.943 21.5-30.43c76.347-13.020 145.966-49.009 201.252-104.309s91.412-124.937 104.282-201.304c2.194-12.874 13.31-21.944 25.888-21.944 1.463 0 2.925 0.146 4.388 0.439 14.626 2.341 24.279 15.946 21.793 30.283z" />
<glyph unicode="&#xe904;" glyph-name="account" horiz-adv-x="1073" d="M111.702 271.163h771.492v767.084h-771.492zM-72.911-160.078h1219.582v572.784h-1219.582z" />
<glyph unicode="&#xe905;" glyph-name="arrow" horiz-adv-x="1609" d="M804.946 280.061l-602.042 652.078c-16.534 17.984-38.648 27.861-62.191 27.861-23.611 0-45.725-9.877-62.259-27.861l-52.733-57.122c-16.534-17.911-25.72-41.865-25.72-67.441 0-25.502 9.186-49.457 25.72-67.441l716.762-776.347c16.602-17.984 38.784-27.861 62.395-27.787 23.747-0.074 45.861 9.729 62.531 27.787l716.014 775.61c16.602 18.058 25.72 41.939 25.72 67.441 0 25.576-9.118 49.457-25.72 67.515l-52.665 57.049c-34.362 37.222-90.225 37.222-124.518 0l-601.294-651.341z" />
<glyph unicode="&#xe906;" glyph-name="cart" horiz-adv-x="727" d="M67.813 56.303c0-19.934 15.844-37.185 33.8-37.185h521.581c18.17 0 33.8 14.785 33.8 37.185l-42.882 609.973h-503.415l-42.884-609.973zM623.407-52.789h-521.794c-56.405 0-101.613 49.506-101.613 111.558v2.462l45.208 647.158c2.324 19.937 15.844 34.721 33.8 34.721h566.791c18.168 0 31.688-14.785 33.8-34.721l45.208-647.158v-2.462c0.211-62.052-44.997-111.558-101.401-111.558zM486.907 663.933c-16.245 0-30.221 17.276-30.221 36.92v61.769c0 69.106-44.386 123.302-100.861 123.302s-100.861-54.196-100.861-123.302v-61.533c0-19.88-14.166-36.92-30.221-36.92s-30.221 17.276-30.221 36.92v61.533c0 108.392 72.718 197.378 161.491 197.378s161.491-88.749 161.491-197.378v-61.533c-0.189-19.88-14.355-37.156-30.598-37.156z" />
<glyph unicode="&#xe907;" glyph-name="favoritos" horiz-adv-x="1205" d="M1104.906 865.368c-131.009 126.172-344.249 126.172-475.301 0.029l-27.249-26.194-27.221 26.183c-131.066 126.16-344.278 126.145-475.344 0-64.353-61.948-99.791-144.115-99.791-231.342 0-87.256 35.438-169.409 99.8-231.383l473.456-454.91c8.144-7.844 18.628-11.749 29.096-11.749s20.939 3.922 29.096 11.764l473.456 454.895c64.348 61.959 99.8 144.124 99.8 231.369 0 87.242-35.452 169.395-99.8 231.34zM1046.656 464.69l-444.304-426.917-444.289 426.903c-47.414 45.631-73.522 105.78-73.522 169.352s26.108 123.721 73.522 169.352c49.456 47.629 114.412 71.428 179.381 71.428 64.984 0 129.967-23.827 179.424-71.456l56.36-54.175c16.315-15.7 41.918-15.7 58.235 0l56.374 54.203c98.927 95.243 259.878 95.243 358.805 0 47.4-45.633 73.522-105.78 73.522-169.352s-26.122-123.707-73.508-169.338z" />
<glyph unicode="&#xe908;" glyph-name="logo_naturitas" horiz-adv-x="4173" d="M726.384 932.933c-7.065 13.132-26.324 44.109-59.637 14.964-102.205-74.384-374.37-307.336-269.78-615.675 7.025-21.79 24.043-16.111 29.209-12.255 83.831 59.267 168.417 264.313 195.284 354.442 5.692 19.086 13.579 27.496 15.982 4.279 6.084-58.77-3.359-190.516-145.942-388.151-3.945-5.464-3.732-14.712 10.417-10.441 99.045 29.903 479.301 179.115 224.467 652.836zM434.692 733.925c3.014 5.196 8.854 16.373-0.153 25.993-2.892 3.059-5.878 6.115-8.963 9.164-66.782 66.022-179.34 129.477-353.475 187.026-15.665 7.312-30.305 5.552-38.094-15.98-27.463-86.597-98.092-373.224 109.678-528.462 68.347-51.066 148.979-76.432 188.083-86.509 22.057-6.993 24.642 4.322 24.823 9.549 3.739 108.886-83.983 315.603-158.973 427.33-12.523 18.661-20.997 37.263 2.023 17.537 40.040-34.31 104.272-98.443 155.709-192.339 3.782-6.904 14.13-6.514 15.948 0.713 11.527 45.884 31.232 88.929 55.961 132.963 2.431 4.328 4.91 8.666 7.433 13.015zM2974.094 379.326c6.87-8.26 16.412-12.451 28.366-12.451 11.703 0 22.485 4.002 32.056 11.887 9.927 8.182 16.051 18.568 18.211 30.864 2.269 12.616-0.485 23.924-7.967 32.714-7.011 8.228-16.622 12.406-28.56 12.406-11.717 0-22.431-4.002-31.839-11.907-9.751-8.168-15.792-18.39-17.949-30.409-2.259-12.881 0.395-24.322 7.683-33.103zM4054.296 289.202c-5.197 11.31-5.197 11.31-6.595 16.808-2.552 10.029-3.107 19.274-1.639 27.479 1.41 7.903 4.496 14.055 9.432 18.78 4.595 4.456 10.842 6.721 18.518 6.721 11.479 0 15.941-2.665 17.668-4.77h0.012c2.517-3.14 2.969-8.012 1.33-14.483-1.897-7.673-30.712-66.377-38.726-50.535zM833.61 253.159c-1.245 7.983-1.375 8.819-1.375 8.819-0.757 4.839-1.375 9.62-1.847 14.301-1.33 13.114-1.113 24.887 0.643 34.984 1.656 9.601 4.863 17.352 9.521 23.062 4.208 5.137 9.894 7.629 17.394 7.629 8.341 0 13.281-1.984 14.671-5.896 1.864-5.246 1.266-12.648-1.783-22.017-3.315-10.213-8.985-22.247-16.846-35.768-3.552-6.119-7.267-12.286-11.137-18.486l-4.678-7.491c0 0-3.311-7.114-4.562 0.863zM4145.26 160.809l-13.003 19.549c-5.101 7.673-10.657 15.946-16.689 24.783-6.053 8.862-12.469 17.874-19.217 26.997-3.637 4.911-7.241 9.723-10.82 14.434-7.14 9.562-0.942 16.488 0.59 18.77 8.591 12.822 16.436 25.094 23.377 36.565 9.661 16.004 15.681 29.546 18.378 41.41 3.73 16.343-1.759 26.294-7.022 31.782-7.455 7.739-20.963 11.512-41.28 11.512-23.119 0-42.932-2.427-58.912-7.207-16.13-4.828-29.502-11.378-39.712-19.44-10.347-8.145-18.256-17.588-23.482-28.081-5.162-10.346-8.379-21.070-9.578-31.869-1.218-10.619-1.218-21.252-0.010-31.61 1.173-10.346 3.243-19.732 6.123-27.889 2.971-8.935 7.395-17.826 13.203-26.554 14.842-23.122-52.316-98.205-60.221-103.8-5.81-4.611-13.106-8.941-21.449-12.671-8.098-3.639-16.174-5.416-24.678-5.416-10.78 0-19.404 4.202-26.395 12.839-7.659 9.409-14.244 21.283-19.551 35.303-5.42 14.28-9.884 30.137-13.271 47.126-3.468 17.439-6.857 33.497-10.086 48.152-3.276 14.793-6.859 27.483-10.642 37.709-4.633 12.421-11.36 18.72-19.99 18.72-8.189 0-15.574-5.53-21.977-16.432-5.424-9.237-11.25-20.921-17.306-34.724-6.030-13.716-12.504-28.573-19.462-44.6-6.775-15.66-14.658-30.35-23.445-43.665-8.632-13.114-18.613-24.266-29.659-33.149-10.615-8.513-22.825-12.648-37.339-12.648-7.195 0-14.401 2.619-22.014 7.991-7.57 5.327-13.529 13.461-17.722 24.186-4.292 10.958-5.907 24.636-4.812 40.648 1.099 16.138 6.869 35.257 17.182 56.826 6.663 14.247 15.609 28.106 26.577 41.141 11.034 13.101 23.198 24.624 36.151 34.248 12.933 9.634 26.509 17.361 40.355 22.948 13.555 5.497 26.612 8.285 38.774 8.285 13.203 0 23.495-1.086 30.587-3.229 7.465-2.265 13.417-4.408 17.71-6.37 5.059-2.278 9.014-3.672 12.083-4.226l2.443-0.203c2.031 0.021 6.177 0.782 12.626 7.307 2.045 2.414 6.389 9.748-3.459 19.167-5.317 5.077-13.436 9.268-24.824 12.828-10.784 3.366-24.303 5.666-40.151 6.856-15.957 1.169-33.465 0.091-51.762-3.217-12.733-2.321-25.845-5.937-39.2-10.78-0.010-0.004-0.004 0.008-0.014 0.004-0.074-0.027-0.138-0.058-0.206-0.083-8.298-3.018-16.687-6.508-25.136-10.472-3.515-1.649-7.041-3.48-10.574-5.399-69.414-35.793-118.766-90.902-147.495-129.618-26.577-30.919-50.185-58.868-77.409-76.353-5.397-3.107-11.143-5.281-17.182-6.099-2.293-0.314-4.789-0.494-7.461-0.494-11.368 0-33.374 3.42-53.015 26.335-5.148 6.012-10.277 13.631-15.013 23.238-20.122 57.939-24.795 150.603-9.898 249.151 3.839 23.606 13.43 65.155 15.821 74.625s12.986 9.698 15.943 9.727c49.548 0.432 85.493 0.995 97.015 1.521 21.447 1.053 33.127 10.085 32.978 15.935-0.148 5.983-15.869 21.486-85.963 21.486-11.7 0-24.507-0.451-38.040-1.326l-4.731-0.124c0 0-6.381 0.875-6.381 7.025 7.102 49.176 43.519 323.336-77.885 0.261-0.827-2.211-5.721-10.12-14.017-10.12-92.589-4.069-106.439-33.745-102.53-35.055 2.041-0.679 3.95-0.792 24.012-0.577 12.605 0.126 32.164 0.331 63.225 0.385 0 0 8.323-0.767 5.34-8.033-2.979-7.267-46.845-114.728-60.916-283.182-5.946-74.298-91.7-121.716-112.082-121.23-50.007 2.716 43.066 260.645-27.001 261.566-17.493-0.137-39.78-8.242-56.331-24.843-15.673-15.729-31.993-35.789-48.529-59.621-1.132-1.634-3.567-5.588-7.059-11.246-43.097-69.844-95.648-147.161-135.135-147.182h-0.010c-30.993 0-32.622 50.671-33.162 67.318-0.462 19.289-0.812 37.967-1.039 56.046-0.237 17.969-0.699 34.564-1.387 49.287-0.746 15.625-2.965 26.687-6.789 33.815-4.078 6.992-13.316 11.777-28.168 14.44-13.067 2.346-28.1 4.123-44.67 5.294l-48.554 3.475c-10.007 0.741-20.924 2.402-25.989 3.173s-4.676 6.314-4.676 6.314c0.192 1.837 0.282 3.591 0.282 5.284l-0.010 5.689c0.53 11.080-3.185 20.797-10.719 28.366-7.568 7.582-17.349 11.434-29.061 11.434-12.514 0-23.853-4.489-33.704-13.327-9.692-8.713-15.918-19.494-18.503-32.028-1.561-8.827-0.847-16.864 2.144-23.699 2.789-6.368 6.968-11.74 12.421-15.946 3.363-3.42 7.869-5.79 14.432-7.83 2.202-0.668 4.474-1.394 6.754-2.139 0 0 5.999-3.287 2.598-9.558-3.398-6.272-32.347-59.656-32.347-59.656-19.827-35.948-57.974-96.206-90.886-96.221-30.737 0-46.375 149.25-46.433 149.828-1.882 20.696-5.175 38.791-9.783 53.367-5.457 17.239-14.784 25.971-27.715 25.971-11.259 0-19.027-12.737-23.892-22.313-6.5-12.818-13.693-29.146-21.386-48.541-7.63-19.264-15.858-40.173-24.639-62.691-8.692-22.247-18.274-43.112-28.496-62.018-10.125-18.724-21.365-34.451-33.399-46.759-11.446-11.705-23.49-17.396-36.813-17.396-5.962 0-10.848 3.072-15.355 9.667-5.144 7.524-9.42 17.679-12.706 30.216-3.387 12.942-6.024 28.002-7.826 44.765-1.818 16.839-2.74 34.554-2.74 52.643 0 18.143 0.581 36.403 1.724 54.298 1.124 17.667 3.088 34.136 5.845 48.946 1.056 6.337 0.198 11.403-2.559 14.928-2.309 2.946-5.688 4.609-10.018 4.93-7.812 0.588-16.631-2.803-26.989-10.068-9.719-6.819-19.606-16.848-29.393-29.794-9.917-13.101-17.141-28.548-21.466-45.897-4.67-18.281-8.335-37.98-10.898-58.557-0.876-7.011-7.607-43.394-10.989-51.224-9.98-23.112-30.288-49.985-55.66-53.406-2.286-0.319-4.789-0.496-7.459-0.496-11.368 0-33.376 3.422-53.017 26.337-26.399 30.824-52.463 103.345-26.682 273.844 3.655 22.508 8.781 46.91 14.926 71.15 0.746 2.938 0.812 3.5 2.28 8.805s8.346 4.328 8.346 4.328c9.381 0 20.349-0.337 32.007-0.701 13.098-0.42 27.076-0.85 40.629-0.85 38.468 0 61.357 4.013 68.030 11.934 1.633 1.938 2.152 4.024 1.688 6.779-2.647 15.786-21.792 22.528-64.010 22.528-12.549 0-25.915-0.534-40.062-1.088-7.758-0.312-15.619-0.625-23.47-0.854-0.944-0.025-4.14-0.072-2.835-0.072 0.761 0-7.109-1.88-5.779 6.459 0.054 0.339 0.35 4.89 1.012 7.435 15.431 64.215 70.249 311.972-86.509-13.432 0 0-0.781-3.248-4.381-3.248-3.602 0-3.602-0.021-3.602-0.021-108.855-3.231-120.436-32.485-116.442-33.822 3.812-1.272 16.84-1.614 63.344-1.614 0 0 31.582 0.029 37.363 0.062s2.253-8.049 2.253-8.049c-14.351-34.455-26.729-71.661-36.8-110.623-17.332-67.097-23.761-129.846-19.314-184.485-0.105-14.682-2.672-68.090-47.309-102.673-18.427-12.607-16.706-12.1-24.099-15.528-3.49-1.616-6.793-2.785-9.846-3.436-24.93-4.663-36.627 29.932-41.93 43.917-5.41 14.235-9.871 30.079-13.267 47.111-3.484 17.444-6.851 33.493-10.092 48.158-3.257 14.731-6.838 27.413-10.634 37.692-4.624 12.431-11.349 18.734-19.99 18.734-8.183 0-15.576-5.534-21.979-16.432-5.432-9.249-11.261-20.936-17.314-34.73-6.020-13.709-12.504-28.567-19.446-44.594-6.791-15.673-14.689-30.373-23.462-43.677-8.63-13.124-18.615-24.266-29.659-33.137-10.607-8.511-22.818-12.648-37.334-12.648-7.082 0-14.491 2.685-22.012 7.987-7.682 5.416-13.475 13.327-17.71 24.185-4.292 10.968-5.913 24.649-4.824 40.655 1.101 16.144 6.884 35.268 17.19 56.813 6.669 14.276 15.615 28.137 26.564 41.147 11.024 13.081 23.187 24.608 36.155 34.248 12.949 9.646 26.529 17.365 40.359 22.953 13.553 5.497 26.604 8.285 38.773 8.285 13.205 0 23.493-1.090 30.58-3.233 7.401-2.243 21.643-10.009 31.533-11.053 15.621-1.152 19.709 17.321 9.867 26.728-5.309 5.077-13.43 9.272-24.82 12.826-10.78 3.368-24.297 5.672-40.147 6.862-15.902 1.165-33.452 0.066-51.785-3.221-162.846-35.764-219.803-165.866-226.868-186.436-8.754-31.198-114.302-131.161-122.683-22.127-2.969 21.308-4.938 44.889-5.839 70.084-0.938 25.613-2.462 49.503-4.534 71.015-2.101 21.815-5.569 40.502-10.312 55.521-5.455 17.239-14.778 25.971-27.719 25.971-10.213 0-20.971-6.945-32.887-21.233-10.78-12.932-22.047-29.229-33.487-48.437-11.29-18.941-22.68-39.916-33.861-62.347-11.086-22.245-21.6-42.883-31.523-61.878-9.849-18.836-18.67-34.792-26.216-47.405-2.827-4.737-18.561-24.219-36.456 13.385-5.214 9.553-10.364 20.702-15.316 33.147-2.998 7.497-5.874 15.344-8.595 23.43-3.734 11.533 20.033 50.609 28.688 65.469 10.605 18.19 18.044 35.061 22.109 50.183 4.292 15.966 3.796 29.316-1.48 39.653-5.67 11.097-18.606 16.724-38.458 16.724-15.365 0-29.195-2.091-41.105-6.229-11.875-4.135-22.357-9.715-31.15-16.571-8.754-6.845-16.283-14.767-22.359-23.55-5.975-8.637-10.937-17.621-14.761-26.734-9.040-20.987-14.57-44.914-16.46-71.158-1.853-40.462-0.188-77.203 4.958-109.084 2.319-13.577 5.527-27.065 9.527-40.017 4.031-13.124 9.368-25.17 15.869-35.789 6.684-10.937 15.1-19.744 25.006-26.18 10.176-6.643 22.441-10.009 36.475-10.009 14.281 0 28.35 5.59 41.806 16.626 12.803 10.439 25.045 23.561 36.396 38.996 11.18 15.176 21.938 32.018 31.974 50.061 9.95 17.87 19.099 34.349 27.418 49.445 8.43 15.244 15.563 27.452 21.814 37.31 0 0 4.082 6.194 6.585 10.381 2.501 4.183 3.517-1.086 3.517-1.086l2.012-44.056c0.699-15.195 2.111-31.97 4.195-49.852 2.128-18.236 5.958-35.293 11.389-50.682 5.597-15.877 14.007-29.386 24.993-40.164 11.483-11.268 26.736-16.978 45.35-16.978 16.388 0 32.735 3.186 48.606 9.45 15.528 6.134 30.461 13.807 44.381 22.804 13.79 8.906 26.863 18.803 38.87 29.421 5.566 4.932 8.339 6.947 15.654 14.392 7.313 7.449 9.661-3.080 9.661-3.080 1.728-8.831 4.41-17.046 7.974-24.436 7.181-14.924 18.083-26.883 32.397-35.528 14.26-8.647 32.308-13.023 53.655-13.023 19.963 0 39.536 5.792 58.172 17.216 18.083 11.061 34.415 23.629 48.55 37.33 14.040 13.625 28.61 28.65 34.555 37.872 7.572 11.953 10.327-1.502 10.327-1.502 3.379-10.803 8.438-22.553 15.034-34.92 7.428-13.962 17.134-26.747 28.859-38.013 12.391-11.932 33.529-19.13 51.657-19.13 16.388 0 32.737 3.184 48.606 9.45 35.968 15.782 77.728 53.429 97.592 70.893 15.285 13.577 23.831-0.854 29.164-9.398 26.115-41.84 67.22-70.066 109.95-70.066 50.267 0 103.53 57.749 127.709 96.399 17.116 25.53 24.055-96.132 105.206-96.132 10.613 0 21.089 2.687 31.141 7.967 9.696 5.124 19.002 11.877 27.649 20.071 8.527 8.083 16.788 17.328 24.565 27.493 7.68 10.044 14.898 20.617 21.458 31.405 8.958 14.45 19.499 33.77 25.443 47.341 8.857 20.991 12.597-30.443 14.227-44.871 1.68-14.866 5.199-28.966 10.457-41.919 5.437-13.387 13.708-24.709 24.591-33.64 10.248-8.418 24.037-12.998 40.975-13.598l3.354-0.126c122.868 11.165 195.542 198.058 219.702 278.865 1.627 5.443 6.686 11.968 21.227 7.843 6.189-0.906 12.368-1.949 18.51-3.082 5.826-1.098 11.16-2.619 15.86-4.533 2.202-0.919 6.111-2.847 7.985-5.681 1.818-3.376 3.544-10.528 3.016-28.137-12.024-197.425 34.592-245.666 77.968-245.666 82.415 0 176.498 128.007 203.866 177.96 0 0 15.681 27.878 11.718 0.147-3.426-24.146-5.834-40.156-7.377-52.699-2.618-21.149-2.371-40.936 0.724-58.81 3.185-18.424 10.539-34.159 21.878-46.759 11.733-13.056 29.987-19.674 54.254-19.674 16.357 0 32.927 3.171 49.247 9.427 15.97 6.121 31.467 13.772 46.070 22.756 14.526 8.935 28.191 18.825 40.637 29.421 12.164 10.362 23.119 20.3 32.564 29.527 3.95 3.873 7.517 7.439 10.733 10.735 17.219 17.048 24.565-1.405 26.958-6.585 24.536-53.1 60.635-93.806 104.759-95.308 0.346-0.031 1.88-0.118 2.323-0.132h0.136c47.758 0 85.115 31.633 112.476 63.018 7.44 8.978 15.899 23.89 36.976 24.312 29.055-0.811 30.372-53.386 69.618-73.804 11.135-6.274 24.451-10.064 39.747-11.33 0.305-0.033 0.592-0.085 0.901-0.116 0.029-0.004 0.029 0.033 0.052 0.039 3.519-0.265 7.1-0.447 10.826-0.447 19.963 0 39.54 5.792 58.165 17.218 18.105 11.082 34.438 28.128 48.552 41.819 13.984 13.567 21.676 21.96 29.948 32.417 10.622 13.436 23.365-18.565 29.983-30.987 7.42-13.939 17.095-31.79 29.385-42.417 14.030-12.135 27.513-17.342 47.282-19.012 38.668-3.262 114.999-4.973 188.769 116.178 17.357 24.159 31.040 15.127 37.079 7.996 3.245-4.961 3.16-5.029 6.22-10.089 8.787-14.551 14.366-30.466 16.58-47.304 2.169-15.302 1.759-28.424-1.245-38.964-3.037-10.699-6.97-19.609-11.677-26.488-4.696-6.833-9.486-12.112-14.254-15.671-5.175-3.823-8.717-6.678-10.896-8.761-2.136-1.587-5.243-3.436-11.644-6.291-5.039-2.255-10.527-3.355-16.751-3.355l-1.458 0.023c-6.61 0.194-13.067 2.584-19.843 7.298-6.432 4.51-11.803 13.463-15.992 26.622-1.051 4.862-3.763 8.262-7.987 10.379-2.905 1.452-5.804 2.191-8.616 2.191-0.996 0-1.977-0.091-2.971-0.271-4.055-0.749-7.49-3.016-9.972-6.564-2.907-4.16-2.728-9.69 0.538-16.91 5.319-11.628 13.477-23.608 24.206-35.574 10.956-12.216 24.544-21.521 40.386-27.64 15.918-6.132 34.316-7.774 54.916-4.851 20.501 2.898 43.416 13.325 68.127 30.963 24.736 17.667 42.175 36.809 51.82 56.869 9.556 19.876 14.763 39.041 15.485 56.946 0.722 17.861-1.491 34.070-6.575 48.168-5.115 14.142-9.226 23.699-12.966 30.079z" />
<glyph unicode="&#xe909;" glyph-name="search" d="M382.069 315.259c47.759 0 91.771 11.94 132.038 35.819s72.106 55.952 95.517 96.219c23.411 40.267 35.117 84.28 35.117 132.038s-11.705 91.771-35.117 132.038c-23.411 40.267-55.25 72.106-95.517 95.517s-84.28 35.117-132.038 35.117c-47.759 0-91.771-11.705-132.038-35.117s-72.34-55.25-96.219-95.517c-23.879-40.267-35.819-84.28-35.819-132.038s11.94-91.771 35.819-132.038c23.879-40.267 55.952-72.34 96.219-96.219s84.28-35.819 132.038-35.819zM733.235 315.259l290.765-290.765-88.494-88.494-290.765 292.17v46.354l-16.856 15.451c-32.776-29.030-70.467-51.27-113.075-66.722s-86.855-23.177-132.741-23.177c-69.297 0-133.209 16.856-191.737 50.568s-104.647 79.129-138.359 136.252c-34.649 58.996-51.973 123.142-51.973 192.439s17.090 133.209 51.27 191.737c34.18 58.528 80.534 104.647 139.062 138.359s122.44 50.568 191.737 50.568c69.297 0 133.443-17.324 192.439-51.973 57.123-33.712 102.306-79.597 135.55-137.657s49.866-121.737 49.866-191.034c0-46.822-7.726-91.537-23.177-134.145s-37.692-80.3-66.722-113.075l15.451-16.856h47.759z" />
<glyph unicode="&#xe90a;" glyph-name="menu_mobile" horiz-adv-x="973" d="M-107.387 183.023h1038.074v966.483h-1038.074zM15.889-51.666l40.209 217.907c0.649 2.594 3.243 4.864 5.837 4.864h5.188c1.946 0 4.864-1.621 5.513-3.567l67.772-165.7h1.297l67.447 165.7c0.649 1.946 3.243 3.567 5.513 3.567h5.188c2.594 0 5.188-2.27 5.837-4.864l39.885-217.907c0.973-4.54-1.297-7.458-5.837-7.458h-21.077c-2.918 0-5.513 2.27-6.161 4.54l-23.996 144.947h-0.973l-58.368-149.163c-0.649-1.946-2.594-3.567-5.513-3.567h-5.837c-2.594 0-4.864 1.621-5.513 3.567l-58.692 149.163h-1.297l-23.347-144.947c-0.324-2.27-3.243-4.54-5.837-4.54h-21.077c-4.54 0-6.81 2.918-6.161 7.458zM313.242-52.963v214.665c0 3.243 2.594 6.161 6.161 6.161h129.707c3.567 0 6.161-2.918 6.161-6.161v-18.159c0-3.243-2.594-6.161-6.161-6.161h-102.468v-66.15h86.579c3.243 0 6.161-2.918 6.161-6.161v-18.159c0-3.567-2.918-6.161-6.161-6.161h-86.579v-69.717h102.468c3.567 0 6.161-2.918 6.161-6.161v-17.835c0-3.243-2.594-6.161-6.161-6.161h-129.707c-3.567 0-6.161 2.918-6.161 6.161zM504.235-52.963v218.231c0 3.243 2.918 5.837 6.161 5.837h8.107l140.732-162.782h0.324v153.378c0 3.243 2.594 6.161 6.161 6.161h20.753c3.243 0 6.161-2.918 6.161-6.161v-218.231c0-3.243-2.918-5.837-6.161-5.837h-8.431l-140.732 167.322h-0.324v-157.918c0-3.243-2.594-6.161-6.161-6.161h-20.429c-3.243 0-6.161 2.918-6.161 6.161zM752.623 25.51v136.192c0 3.243 2.918 6.161 6.161 6.161h21.726c3.567 0 6.161-2.918 6.161-6.161v-133.922c0-32.427 20.753-57.719 53.828-57.719 33.399 0 54.477 24.969 54.477 57.071v134.571c0 3.243 2.594 6.161 6.161 6.161h21.726c3.243 0 6.161-2.918 6.161-6.161v-136.192c0-49.289-37.291-87.876-88.525-87.876-50.91 0-87.876 38.588-87.876 87.876z" />
<glyph unicode="&#xe90b;" glyph-name="phone" d="M831.404 190.845c-11.536 12.426-23.492 24.221-35.238 35.594-5.873 5.687-11.746 11.584-17.619 17.481l-51.179 51.39c-21.814 21.904-47.404 33.488-73.622 33.488-26.429 0-51.808-11.584-73.622-33.488-5.244-5.265-10.697-10.531-15.941-15.796-12.166-12.005-24.751-24.431-36.916-37.49-21.604 10.531-43.628 25.063-69.218 45.282-33.35 27.38-61.876 54.76-87.256 83.825-13.634 15.796-37.545 17.481-53.277 3.58-15.731-13.69-17.409-37.7-3.566-53.496 28.107-32.435 59.779-62.974 96.695-93.092 0.21 0 0.21-0.211 0.42-0.211 37.126-29.486 68.379-48.863 101.729-62.553 0.839-0.421 1.678-0.632 2.517-0.842 7.971-2.738 31.882-10.741 55.374 12.637 0.42 0.421 1.049 1.053 1.468 1.474 14.263 16.217 29.365 30.961 45.306 46.757 5.454 5.265 10.907 10.741 16.361 16.217 5.034 5.055 12.795 11.373 20.346 11.373s15.102-6.108 20.346-11.373l51.179-51.39c6.083-6.108 12.375-12.216 18.248-18.113 11.746-11.373 22.653-22.325 33.141-33.488 0.21-0.421 0.629-0.632 0.839-0.842 7.971-8.003 16.57-20.64-0.42-38.753l-63.974-64.238c-13.634-13.69-28.736-20.851-47.823-22.536-32.511-2.738-67.12 3.58-112.216 20.43-75.091 27.801-145.147 70.135-220.867 133.32-91.451 76.875-163.396 169.125-214.155 274.222-18.039 38.122-39.223 88.669-42.789 142.376-1.888 29.907 6.083 51.39 25.38 69.503 14.053 11.795 26.429 24.642 38.175 36.858 7.551 8.003 14.683 15.375 22.234 22.325l0.21 0.211c14.892 14.322 27.268 14.533 41.111 0.632l103.407-103.834c0.21-0.211 0.42-0.421 0.629-0.632 4.405-4.212 9.649-10.741 9.858-17.902 0-7.582-5.663-14.954-10.278-19.798l-64.184-64.449c-14.683-14.743-14.683-38.753 0-53.707 14.683-14.743 38.594-14.743 53.486 0l64.184 64.449c21.604 21.693 32.721 47.178 32.511 74.137-0.21 26.327-11.536 51.18-32.721 71.609l-103.197 103.623c-43.209 43.387-101.939 43.598-146.616 0.632-8.81-8.214-16.78-16.639-24.751-24.853-11.117-11.584-21.604-22.536-32.931-32.014-0.42-0.421-0.839-0.842-1.468-1.264-36.706-33.488-53.486-77.296-50.34-130.371 4.405-66.555 28.946-125.948 49.921-170.178v-0.211c55.584-114.996 134.031-215.671 233.662-299.496 82.432-68.661 159.62-115.207 242.891-146.168 30.624-11.373 75.3-25.695 124.802-25.695 6.502 0 13.214 0.211 19.926 0.842h0.21c36.706 3.159 68.588 18.113 94.807 44.44l64.184 64.449c0.21 0.211 0.42 0.421 0.629 0.632 41.321 43.176 41.111 102.57 0 144.483zM807.818 414.834c-14.020 82.246-52.915 157.262-112.387 216.913-59.020 59.199-134.096 98.063-216.634 112.072-22.161 3.841-43.191-11.072-47.035-33.215s11.080-43.157 33.241-46.998c65.578-11.072 125.503-42.253 172.99-89.702s78.694-107.327 89.774-172.852c3.392-19.884 20.578-33.893 40.025-33.893 2.261 0 4.523 0.226 6.784 0.678 22.161 3.841 37.086 24.855 33.241 46.998zM1023.447 464.639c-20.958 123.702-79.473 236.403-168.905 325.859s-202.105 147.986-325.775 168.948c-20.335 3.528-39.633-10.17-43.16-30.51s10.168-39.643 30.503-43.171c108.315-18.472 207.085-69.53 285.52-147.986s129.688-177.251 147.948-285.593c3.112-18.265 18.883-31.133 36.728-31.133 2.075 0 4.15 0.208 6.225 0.623 20.75 3.321 34.445 22.623 30.918 42.964z" />
<glyph unicode="&#xe90c;" glyph-name="free-delivery" horiz-adv-x="1152" d="M1151.352 738.816c-0.216 2.176-0.72 4.224-1.44 6.336s-1.584 4.032-2.736 5.952c-0.504 0.832-0.576 1.856-1.224 2.688l-144 192c-6.696 8.832-17.928 14.208-29.952 14.208h-792c-12.024 0-23.256-5.376-29.952-14.272l-144-192c-0.648-0.832-0.72-1.792-1.224-2.688-1.152-1.92-2.016-3.84-2.736-5.952s-1.224-4.16-1.44-6.336c-0.144-0.896-0.648-1.728-0.648-2.752v-736c0-35.328 32.328-64 72-64h1008c39.672 0 72 28.672 72 64v736c0 1.024-0.504 1.856-0.648 2.816zM952.704 896l96.048-128h-334.224l-24.048 128h262.224zM534.456 896h83.016l24.048-128h-131.040l23.976 128zM504 704h144v-115.648l-60.624 18.048c-7.416 2.112-15.408 2.112-22.752 0l-60.624-18.048v115.648zM199.296 896h262.224l-24.048-128h-334.224l96.048 128zM1080-32v32h-1008v704h360v-160c0-10.304 5.544-19.968 14.976-25.92 9.36-6.080 21.384-7.488 32.4-4.48l96.624 28.672 96.624-28.608c3.744-1.088 7.56-1.664 11.376-1.664 7.488 0 14.832 2.048 21.024 6.080 9.432 5.952 14.976 15.616 14.976 25.92v160h360v-704c0 0 0 0 0.072 0l-0.072-32zM900.593 567.651c-15.21 11.094-39.935 11.151-55.223 0.057l-356.375-259.879-129.555 141.716c-11.934 13.085-36.191 16.612-54.053 7.908-17.94-8.704-22.776-26.398-10.842-39.426l155.997-170.674c6.474-7.111 17.004-11.663 28.625-12.573 1.248-0.057 2.574-0.114 3.822-0.114 10.296 0 20.202 2.958 27.611 8.306l389.992 284.456c15.21 11.094 15.21 29.128 0 40.222z" />
<glyph unicode="&#xe90d;" glyph-name="devolucion" d="M994.71 877.179c-20.009 4.239-39.692-8.347-43.977-28.096l-26.916-124.024c-85.696 144.355-242.989 234.941-415.385 234.941-265.493 0-481.486-213.273-481.486-475.429 0-20.196 16.581-36.571 37.037-36.571 20.454 0 37.037 16.375 37.037 36.571 0 221.822 182.763 402.286 407.411 402.286 146.458 0 280.047-77.248 352.374-200.245l-123.48 26.13c-20.006 4.234-39.692-8.35-43.974-28.099-4.284-19.749 8.456-39.193 28.457-43.423l211.96-44.851c3.6-0.764 7.256-0.983 10.862-0.685 6.006 0.5 11.861 2.446 17.016 5.74 8.249 5.269 14.039 13.558 16.098 23.040l45.426 209.294c4.279 19.746-8.462 39.184-28.462 43.421zM958.359 528.818c-20.539-0.683-36.646-17.988-35.967-38.65 3.608-109.939-35.553-214.705-110.279-295.015-74.723-80.301-176.059-126.531-285.34-130.161-4.555-0.15-9.086-0.225-13.623-0.225-142.593 0.006-273.95 74.505-348.134 195.211l129.348-34.891c19.852-5.352 40.26 6.493 45.583 26.466 5.323 19.97-6.454 40.498-26.306 45.859l-210.376 56.742c-9.533 2.567-19.694 1.225-28.238-3.735-8.55-4.96-14.787-13.139-17.345-22.729l-56.402-211.641c-5.323-19.97 6.454-40.498 26.306-45.856 3.23-0.872 6.469-1.291 9.661-1.291 16.428 0 31.465 11.033 35.922 27.754l31.703 118.95c88.195-139.705 241.711-225.72 408.26-225.714 5.35 0 10.73 0.087 16.1 0.267 129.151 4.295 248.912 58.923 337.223 153.827s134.593 218.724 130.327 348.651c-0.676 20.659-17.887 36.913-38.423 36.179z" />
<glyph unicode="&#xe90e;" glyph-name="person_outline" d="M512 384.667c114 0 342-58 342-172v-128h-684v128c0 114 228 172 342 172zM512 768.667c94 0 170-78 170-172s-76-170-170-170-170 76-170 170 76 172 170 172zM512 302.667c-126 0-260-62-260-90v-46h520v46c0 28-134 90-260 90zM512 686.667c-50 0-90-40-90-90s40-88 90-88 90 38 90 88-40 90-90 90z" />
<glyph unicode="&#xe90f;" glyph-name="angle-down" horiz-adv-x="658" d="M614.286 530.286c0-4.571-2.286-9.714-5.714-13.143l-266.286-266.286c-3.429-3.429-8.571-5.714-13.143-5.714s-9.714 2.286-13.143 5.714l-266.286 266.286c-3.429 3.429-5.714 8.571-5.714 13.143s2.286 9.714 5.714 13.143l28.571 28.571c3.429 3.429 8 5.714 13.143 5.714 4.571 0 9.714-2.286 13.143-5.714l224.571-224.571 224.571 224.571c3.429 3.429 8.571 5.714 13.143 5.714s9.714-2.286 13.143-5.714l28.571-28.571c3.429-3.429 5.714-8.571 5.714-13.143z" />
<glyph unicode="&#xe910;" d="M1024 448c0-282.77-229.23-512-512-512s-512 229.23-512 512c0 282.77 229.23 512 512 512s512-229.23 512-512z" />
<glyph unicode="&#xe911;" d="M800.941 595.059c-12.706-19.765-29.647-37.412-50.824-52.941v-12.706c0-74.118-26.647-141.353-79.941-201.706s-124.058-90.529-212.294-90.529c-56.471 0-108.706 15.529-156.706 46.588 11.294-1.412 19.412-2.118 24.353-2.118 47.294 0 89.647 14.823 127.059 44.471-21.882 0.706-41.647 7.588-59.294 20.647s-29.647 29.823-36 50.294c8.471-1.412 14.824-2.118 19.059-2.118 7.059 0 16.235 1.412 27.529 4.235-23.294 4.941-42.882 16.765-58.765 35.471s-23.824 40.412-23.824 65.118v1.059c15.529-8.471 31.059-12.706 46.588-12.706-30.353 19.765-45.529 48.353-45.529 85.765 0 17.647 4.588 34.588 13.765 50.824 54.353-67.059 124.588-102.706 210.706-106.941-1.412 4.941-2.118 12.706-2.118 23.294 0 28.941 9.882 53.294 29.647 73.059s44.118 29.647 73.059 29.647c28.941 0 53.647-10.941 74.118-32.824 21.177 3.529 43.059 12 65.647 25.412-7.059-24.706-22.235-43.765-45.529-57.176 21.882 2.118 41.647 7.412 59.294 15.882z" />
<glyph unicode="&#xe912;" d="M1024 448c0-282.77-229.23-512-512-512s-512 229.23-512 512c0 282.77 229.23 512 512 512s512-229.23 512-512z" />
<glyph unicode="&#xe913;" d="M582.279 463.050c0 46.998-38.331 85.329-85.329 85.329s-85.329-38.331-85.329-85.329c0-46.998 38.331-85.329 85.329-85.329s85.329 38.331 85.329 85.329zM628.277 463.050c0-72.663-58.664-131.327-131.327-131.327s-131.327 58.664-131.327 131.327c0 72.663 58.664 131.327 131.327 131.327s131.327-58.664 131.327-131.327zM664.275 599.71c0-16.999-13.666-30.665-30.665-30.665s-30.665 13.666-30.665 30.665c0 16.999 13.666 30.665 30.665 30.665s30.665-13.666 30.665-30.665zM496.95 673.040c-37.332 0-117.328 3-150.993-10.333-11.666-4.666-20.332-10.333-29.332-19.332s-14.666-17.666-19.332-29.332c-13.333-33.665-10.333-113.661-10.333-150.993s-3-117.328 10.333-150.993c4.666-11.666 10.333-20.332 19.332-29.332s17.666-14.666 29.332-19.332c33.665-13.333 113.661-10.333 150.993-10.333s117.328-3 150.993 10.333c11.666 4.666 20.332 10.333 29.332 19.332s14.666 17.666 19.332 29.332c13.333 33.665 10.333 113.661 10.333 150.993s3 117.328-10.333 150.993c-4.666 11.666-10.333 20.332-19.332 29.332s-17.666 14.666-29.332 19.332c-33.665 13.333-113.661 10.333-150.993 10.333zM752.937 463.050c0-35.332 0.333-70.33-1.667-105.662-2-40.998-11.333-77.33-41.331-107.328s-66.33-39.331-107.328-41.331c-35.332-2-70.33-1.667-105.662-1.667s-70.33-0.333-105.662 1.667c-40.998 2-77.33 11.333-107.328 41.331s-39.331 66.33-41.331 107.328c-2 35.332-1.667 70.33-1.667 105.662s-0.333 70.33 1.667 105.662c2 40.998 11.333 77.33 41.331 107.328s66.33 39.331 107.328 41.331c35.332 2 70.33 1.667 105.662 1.667s70.33 0.333 105.662-1.667c40.998-2 77.33-11.333 107.328-41.331s39.331-66.33 41.331-107.328c2-35.332 1.667-70.33 1.667-105.662z" />
<glyph unicode="&#xe914;" d="M1024 448c0-282.77-229.23-512-512-512s-512 229.23-512 512c0 282.77 229.23 512 512 512s512-229.23 512-512z" />
<glyph unicode="&#xe915;" d="M662.588 688.941c49.882 0 90.353-40.471 90.353-90.353v-301.176c0-49.882-40.471-90.353-90.353-90.353h-58.98v186.667h62.431l9.412 72.784h-71.843v46.431c0 21.020 5.647 35.137 36.078 35.137l38.275 0.314v64.941c-6.588 0.941-29.49 2.824-55.843 2.824-55.529 0-93.804-33.882-93.804-96v-53.647h-62.745v-72.784h62.745v-186.667h-166.902c-49.882 0-90.353 40.471-90.353 90.353v301.176c0 49.882 40.471 90.353 90.353 90.353h301.176z" />
<glyph unicode="&#xe916;" glyph-name="telephone" d="M1024.001 151.273c0-26.182-11.636-77.091-22.546-101.091-15.273-35.636-56-58.909-88.727-77.091-42.909-23.273-86.546-37.091-135.273-37.091-67.636 0-128.727 27.636-190.546 50.182-44.364 16-87.273 35.636-127.273 60.364-123.637 76.364-272.728 225.455-349.091 349.091-24.727 40-44.364 82.909-60.364 127.273-22.546 61.818-50.182 122.909-50.182 190.546 0 48.727 13.818 92.364 37.091 135.273 18.182 32.727 41.455 73.455 77.091 88.727 24 10.909 74.909 22.546 101.091 22.546 5.091 0 10.182 0 15.273-2.182 15.273-5.091 31.273-40.727 38.546-55.273 23.273-41.455 45.818-83.637 69.818-124.364 11.636-18.909 33.455-42.182 33.455-64.727 0-44.364-131.637-109.091-131.637-148.364 0-19.636 18.182-45.091 28.364-62.546 73.455-132.364 165.091-224 297.455-297.455 17.455-10.182 42.909-28.364 62.546-28.364 39.273 0 104 131.637 148.364 131.637 22.546 0 45.818-21.818 64.727-33.455 40.727-24 82.909-46.545 124.364-69.818 14.545-7.273 50.182-23.273 55.273-38.546 2.182-5.091 2.182-10.182 2.182-15.273z" />
<glyph unicode="&#xe917;" d="M511.946 954.085c-278.968 0-505.922-226.955-505.922-505.922s226.955-505.922 505.922-505.922c278.968 0 505.922 226.955 505.922 505.922s-226.955 505.922-505.922 505.922zM511.946-63.783c-282.287 0-511.946 229.659-511.946 511.946s229.659 511.946 511.946 511.946c282.287 0 511.946-229.659 511.946-511.946s-229.659-511.946-511.946-511.946z" />
<glyph unicode="&#xe918;" d="M612.168 564.552c-2.205 4.741-8.228 15.926-18.643 5.403-31.943-26.853-117.013-110.953-84.329-222.268 2.205-7.867 7.517-5.819 9.138-4.427 26.196 21.396 52.64 95.425 61.042 127.958 1.777 6.891 4.241 9.927 4.994 1.548 1.897-21.215-1.054-68.777-45.616-140.125-1.241-1.976-1.175-5.313 3.253-3.771 30.955 10.794 149.823 64.663 70.162 235.683z" />
<glyph unicode="&#xe919;" d="M515.197 491.343c0.928 1.952 2.735 6.144-0.048 9.746-0.891 1.15-1.819 2.295-2.777 3.433-20.649 24.763-55.465 48.556-109.315 70.138-4.849 2.741-9.379 2.084-11.782-5.993-8.493-32.473-30.341-139.957 33.918-198.168 21.137-19.149 46.074-28.66 58.169-32.443 6.825-2.62 7.62 1.62 7.674 3.584 1.163 40.834-25.967 118.344-49.164 160.244-3.867 6.999-6.493 13.975 0.626 6.578 12.384-12.866 32.25-36.918 48.158-72.126 1.169-2.59 4.367-2.446 4.933 0.265 3.566 17.209 9.662 33.346 17.306 49.863 0.753 1.62 1.518 3.247 2.301 4.879z" />
<glyph unicode="&#xe91a;" d="M114.826 374.485c1.164-5.63 5.544-7.85 10.286-6.674 4.869 1.209 7.469 5.167 6.31 10.803l-2.461 11.927-16.591-4.123 2.455-11.933zM93.475 367.877c1.104-5.352 5.635-8.299 10.503-7.090 4.814 1.196 7.354 6.832 6.178 12.541l-2.492 12.072-16.941-4.209 2.751-13.314zM131.211 396.871c0.676 0.172 1.406-0.264 1.575-1.070l3.306-16.030c1.846-8.927-2.256-16.327-9.351-18.091-5.225-1.302-9.785 1.487-12.325 4.473-0.694-4.249-2.998-9.977-9.23-11.524-7.583-1.89-14.425 3.258-16.373 12.7l-3.445 16.684c-0.169 0.806 0.326 1.54 1.001 1.711l44.843 11.147z" />
<glyph unicode="&#xe91b;" d="M150.631 337.084c0.714 0.294 1.593-0.147 1.851-0.933l1.038-3.128c0.264-0.786-0.152-1.748-0.859-2.041l-47.3-19.318c-0.714-0.286-1.593 0.147-1.851 0.933l-1.031 3.128c-0.258 0.786 0.145 1.748 0.859 2.041l47.294 19.318z" />
<glyph unicode="&#xe91c;" d="M163.854 302.877c0.658 0.349 1.515 0.136 1.889-0.582l13.299-25.656c0.374-0.718 0.052-1.546-0.606-1.895l-1.915-0.99c-0.664-0.349-1.521-0.136-1.889 0.582l-11.346 21.878-16.078-8.384 9.689-18.689c0.348-0.647 0.052-1.546-0.612-1.889l-1.902-1.003c-0.728-0.375-1.554-0.065-1.902 0.589l-9.689 18.689-16.8-8.765 11.352-21.871c0.367-0.718 0.045-1.553-0.612-1.889l-1.915-0.996c-0.658-0.349-1.521-0.136-1.889 0.582l-13.306 25.656c-0.374 0.718-0.045 1.546 0.606 1.889l43.624 22.745z" />
<glyph unicode="&#xe91d;" d="M190.49 251.607c0.541 0.413 1.341 0.257 1.741-0.281l1.012-1.351-12.252-47.756c0.041-0.054 0.041-0.054 0.082-0.108l28.828 22.132c0.547 0.418 1.341 0.353 1.788-0.239l1.412-1.889c0.394-0.544 0.276-1.405-0.271-1.817l-36.393-27.955c-0.541-0.413-1.329-0.257-1.741 0.287l-0.724 0.969 12.523 48.647-0.047 0.054-29.411-22.593c-0.541-0.413-1.353-0.353-1.794 0.239l-1.406 1.895c-0.406 0.544-0.276 1.405 0.259 1.817l36.393 27.949z" />
<glyph unicode="&#xe91e;" d="M243.681 191.652c0.448 0.548 1.246 0.64 1.763 0.073l18.703-20.224c0.523-0.567 0.494-1.471 0.040-2.032l-1.315-1.597c-0.448-0.554-1.235-0.647-1.758-0.079l-15.951 17.248-11.063-13.5 13.631-14.741c0.471-0.508 0.494-1.471 0.046-2.019l-1.321-1.61c-0.5-0.607-1.287-0.587-1.758-0.073l-13.631 14.734-11.557-14.114 15.957-17.248c0.517-0.567 0.488-1.471 0.034-2.026l-1.31-1.61c-0.454-0.554-1.241-0.64-1.763-0.073l-18.709 20.23c-0.523 0.561-0.494 1.471-0.040 2.019l30.001 36.641z" />
<glyph unicode="&#xe91f;" d="M265.616 117.749c0.487 0.156 1.025 0.384 1.512 0.54 1.020 0.384 1.919 0.41 2.211-0.918 0.149-0.664 1.432-8.047 6.192-11.791 4.336-3.405 9.085-2.487 11.302 1.159 2.589 4.251 0.917 9.304-3.437 17.103-4.084 7.585-5.935 13.132-1.656 20.17 2.555 4.193 9.566 8.711 18.079 2.025 5.247-4.121 7.229-10.332 7.229-10.332 0.212-0.436 0.407-1.68-0.957-2.35-0.43-0.202-0.905-0.462-1.346-0.671-1.008-0.482-1.696-0.306-2.211 0.918-0.223 0.547-2.016 5.781-5.282 8.347-5.677 4.453-9.939 1.602-11.508-0.99-2.521-4.134-1.255-8.685 1.93-14.375 5.161-9.063 7.899-15.866 3.552-23.028-3.907-6.413-12.058-6.94-18.314-2.025-6.318 4.961-8.008 12.578-8.255 13.867-0.16 0.768-0.401 1.68 0.957 2.35z" />
<glyph unicode="&#xe920;" d="M341.829 114.141l-9.768 5.367c-0.613 0.34-0.806 1.147-0.519 1.773l0.823 1.821c0.287 0.625 0.983 0.941 1.607 0.601l23.777-13.077c0.613-0.34 0.806-1.153 0.525-1.779l-0.823-1.815c-0.287-0.625-0.994-0.941-1.607-0.601l-9.757 5.367-17.438-38.423c-0.282-0.631-1.044-0.917-1.607-0.607l-2.126 1.172c-0.563 0.31-0.817 1.147-0.53 1.779l17.444 38.423z" />
<glyph unicode="&#xe921;" d="M394.253 65.315c-0.844 7.858-1.591 15.763-2.416 23.621l-0.518 0.161-16.578-17.703 19.512-6.079zM358.778 61.579l34.3 36.247c0.325 0.317 0.765 0.53 1.344 0.351l0.651-0.207c0.585-0.178 0.807-0.599 0.862-1.036l5.122-48.526c0.108-0.938-0.687-1.595-1.663-1.29l-2.603 0.812c-0.585 0.178-0.85 0.679-0.874 1.036l-1.247 11.9-23.092 7.185-8.31-8.918c-0.241-0.276-0.753-0.53-1.338-0.345l-2.603 0.812c-0.976 0.299-1.217 1.284-0.548 1.98z" />
<glyph unicode="&#xe922;" d="M459.301 54.624c5.776-0.74 11.532 2.9 12.441 8.396 0.849 5.084-3.463 10.081-9.239 10.815l-14.58 1.861-3.202-19.211 14.58-1.861zM442.588 80.070c0.114 0.669 0.816 1.198 1.638 1.092l19.46-2.484c9.018-1.157 15.329-8.384 14.005-16.351-1.029-6.159-6.471-10.733-13.39-12.236l7.461-18.324c0.381-0.934-0.328-1.943-1.598-1.773l-3.831 0.487c-0.682 0.082-1.003 0.47-1.103 0.757l-7.039 19.017-14.353 1.832-2.834-17.079c-0.114-0.663-0.896-1.18-1.638-1.086l-2.941 0.376c-0.822 0.106-1.317 0.781-1.21 1.45l7.374 44.322z" />
<glyph unicode="&#xe923;" d="M549.342 36.635c0.315 0.458 0.623 0.996 0.937 1.454 0.623 0.996 1.355 1.639 2.465 0.897 0.552-0.377 6.375-4.794 12.827-4.144 5.868 0.6 9.315 4.602 8.859 8.783-0.533 4.887-5.194 7.348-13.892 9.903-8.346 2.592-13.469 5.289-14.348 13.367-0.526 4.812 2.536 13.002 14.053 14.171 7.1 0.718 12.775-2.351 12.775-2.351 0.469-0.173 1.425-0.934 0.706-2.369-0.244-0.452-0.481-0.977-0.725-1.435-0.539-1.052-1.239-1.416-2.459-0.891-0.546 0.235-5.431 2.74-9.848 2.295-7.684-0.779-9.476-5.833-9.148-8.808 0.514-4.744 4.513-7.132 10.862-8.994 10.207-2.901 16.897-5.876 17.796-14.091 0.796-7.367-5.784-13.472-14.252-14.332-8.551-0.872-14.881 3.433-15.915 4.181-0.636 0.433-1.412 0.934-0.693 2.363z" />
<glyph unicode="&#xe924;" d="M633.003 61.778c-5.145 6.166-10.259 12.418-15.404 18.578l-0.517-0.133-3.612-23.626 19.533 5.181zM605.89 39.941l7.699 48.543c0.089 0.44 0.327 0.851 0.915 1.002l0.648 0.174c0.588 0.156 0.998-0.081 1.301-0.411l31.752-38.087c0.624-0.735 0.333-1.708-0.642-1.968l-2.602-0.689c-0.588-0.156-1.087 0.127-1.307 0.411l-7.782 9.338-23.109-6.125-1.788-11.874c-0.042-0.353-0.333-0.845-0.909-1.002l-2.608-0.689c-0.98-0.261-1.735 0.44-1.568 1.378z" />
<glyph unicode="&#xe925;" d="M665.715 104.038c-0.281 0.591-0.042 1.334 0.64 1.627l2.421 1.013c0.616 0.265 1.429-0.039 1.71-0.631l17.296-36.35 17.846 7.517c0.682 0.293 1.429-0.034 1.71-0.625l0.813-1.717c0.281-0.591 0.036-1.334-0.64-1.622l-21.44-9.037c-0.676-0.287-1.429 0.039-1.71 0.631l-18.648 39.193z" />
<glyph unicode="&#xe926;" d="M708.469 130.064c-0.383 0.556-0.204 1.37 0.383 1.726l2.238 1.353c0.649 0.39 1.465 0.172 1.861-0.378l16.195-23.086c4.426-6.312 12.060-8.714 18.934-4.563 6.942 4.191 7.807 11.563 3.375 17.875l-16.269 23.195c-0.389 0.55-0.266 1.336 0.383 1.726l2.231 1.347c0.593 0.355 1.465 0.178 1.861-0.378l16.418-23.413c5.903-8.416 4.055-18.672-5.242-24.284-9.235-5.567-20.028-2.947-25.937 5.469l-16.43 23.413z" />
<glyph unicode="&#xe927;" d="M807.893 154.080c7.994 7.471 8.354 18.649 0.667 26.766-7.646 8.064-18.893 8.398-26.893 0.921l-7.321-6.838 26.232-27.681 7.315 6.832zM768.359 173.873c-0.466 0.493-0.49 1.302-0.006 1.759l10.929 10.21c9.411 8.791 24.425 8.269 33.376-1.173 9.039-9.536 8.644-24.455-0.768-33.258l-10.934-10.204c-0.484-0.452-1.293-0.375-1.759 0.117l-30.837 32.548z" />
<glyph unicode="&#xe928;" d="M859.529 221.588c-7.82 2.004-15.652 4.105-23.473 6.103l-0.316-0.464 11.836-23.189 11.953 17.55zM852.018 184.342l-24.121 47.822c-0.199 0.445-0.269 0.96 0.094 1.489l0.397 0.58c0.351 0.528 0.824 0.599 1.268 0.509l48.26-12.381c0.947-0.232 1.327-1.276 0.731-2.153l-1.601-2.34c-0.351-0.528-0.918-0.612-1.268-0.503l-11.836 3.036-14.144-20.766 5.973-11.633c0.193-0.342 0.275-0.967-0.082-1.489l-1.596-2.34c-0.59-0.877-1.613-0.767-2.075 0.168z" />
<glyph unicode="&#xe929;" d="M898.743 268.275c2.263 4.235 0.611 9.013-3.709 11.237-4.256 2.201-9.381 0.040-11.809-4.495l-5.114-9.573 14.983-7.736 5.649 10.567zM879.093 277.155c2.392 4.472 0.429 8.672-3.768 10.833-4.32 2.23-8.529 1.219-10.921-3.253l-5.055-9.463 14.689-7.574 5.055 9.458zM854.030 272.47c-0.6 0.306-0.893 1.051-0.553 1.687l6.795 12.716c3.779 7.083 11.097 9.452 17.387 6.205 4.62-2.38 6.389-7.077 6.554-10.636 2.962 2.392 7.97 4.766 13.484 1.918 6.718-3.461 8.811-11.139 4.814-18.621l-7.071-13.236c-0.341-0.636-1.134-0.826-1.728-0.514l-39.681 20.481z" />
<glyph unicode="&#xe92a;" d="M879.784 335.32c-0.619 0.229-1.014 0.952-0.785 1.663l0.848 2.513c0.206 0.651 0.963 1.024 1.587 0.795l38.279-14.041 6.182 18.591c0.235 0.711 0.963 1.024 1.587 0.789l1.811-0.657c0.619-0.229 1.008-0.952 0.768-1.663l-7.426-22.333c-0.235-0.711-0.963-1.024-1.587-0.795l-41.265 15.138z" />
<glyph unicode="&#xe92b;" d="M897.033 381.237c-0.654 0.15-1.15 0.891-1.010 1.72l4.984 29.832c0.134 0.836 0.829 1.312 1.494 1.156l1.908-0.428c0.659-0.156 1.155-0.898 1.010-1.727l-4.242-25.446 16.1-3.645 3.63 21.733c0.117 0.755 0.829 1.306 1.488 1.156l1.908-0.435c0.729-0.163 1.144-0.966 1.015-1.72l-3.624-21.733 16.812-3.815 4.248 25.446c0.14 0.836 0.834 1.306 1.494 1.149l1.914-0.428c0.654-0.15 1.15-0.891 1.015-1.72l-4.984-29.839c-0.14-0.836-0.829-1.306-1.494-1.156l-43.667 9.901z" />
<glyph unicode="&#xe92c;" d="M116.419 465.175c2.92 35.63 9.762 69.968 20.115 102.4h-5.775c-10.189-32.476-16.948-66.795-19.825-102.4h5.485z" />
<glyph unicode="&#xe92d;" d="M896 567.575c10.349-32.432 17.192-66.77 20.114-102.4h5.486c-2.883 35.605-9.638 69.924-19.829 102.4h-5.771z" />
<glyph unicode="&#xe92e;" d="M120.036 653.998c-0.66 0.521-0.75 1.562-0.25 2.257l1.249 1.742 45.515 7.762 0.048 0.074-23.677 18.456c-0.672 0.521-0.874 1.55-0.321 2.306l5.985 8.344c0.5 0.688 1.547 0.849 2.219 0.329l44.891-34.983c0.666-0.515 0.75-1.562 0.256-2.257l-0.803-1.11c-0.143-0.211-0.75-0.608-0.982-0.639l-46.182-6.826-0.059-0.068 24.89-19.392c0.66-0.521 0.869-1.537 0.315-2.306l-5.937-8.276c-0.5-0.688-1.547-0.849-2.207-0.329l-44.95 34.915z" />
<glyph unicode="&#xe92f;" d="M252.311 734.412l-13.657 7.422-0.060-0.057 3.582-15.69 10.136 8.325zM236.044 696.875l-14.146 64.39c-0.115 0.579 0.091 1.323 0.562 1.705l0.664 0.541c0.465 0.388 1.19 0.426 1.703 0.165l55.879-30.096c1.081-0.585 1.214-1.94 0.217-2.754l-7.393-6.087c-1.202-0.986-2.048-0.999-3.636-0.153l-6.505 3.568-18.139-14.902 1.764-7.588c0.29-1.113 0.181-2.563-1.148-3.657l-7.333-6.023c-1.003-0.82-2.211-0.35-2.489 0.89z" />
<glyph unicode="&#xe930;" d="M316.864 800.108l-11.707-5.348c-0.907-0.406-1.891 0.026-2.277 0.85l-4.065 8.943c-0.367 0.818-0.045 1.856 0.849 2.268l36.368 16.597c0.901 0.412 1.891-0.032 2.264-0.85l4.072-8.943c0.367-0.818 0.051-1.856-0.849-2.268l-11.713-5.341 19.921-43.812c0.373-0.818-0.032-1.894-0.836-2.268l-9.835-4.484c-0.823-0.38-1.891 0.026-2.264 0.85l-19.927 43.806z" />
<glyph unicode="&#xe931;" d="M401.089 846.86c-0.143 0.895 0.428 1.843 1.217 2.024l9.665 2.031c0.868 0.182 1.622-0.487 1.771-1.382l5.906-36.157c1.022-6.248 5.924-10.38 11.51-9.213 5.655 1.2 9.002 7.078 7.98 13.326l-5.906 36.15c-0.143 0.895 0.354 1.83 1.222 2.005l9.659 2.037c0.794 0.169 1.622-0.48 1.771-1.375l6.021-36.87c2.222-13.56-5.998-26.931-18.416-29.552-12.333-2.602-24.163 6.553-26.373 20.112l-6.026 36.864z" />
<glyph unicode="&#xe932;" d="M550.477 831.699c3.653-0.261 7.050 2.585 7.344 5.981 0.301 3.39-2.585 6.363-6.237 6.63l-13.211 0.95-1.1-12.605 13.204-0.956zM525.253 856.294c0.064 0.806 0.844 1.484 1.83 1.408l26.683-1.918c10.703-0.777 18.757-9.243 17.906-18.864-0.646-7.435-6.621-13.022-14.631-15.294l10.415-21.408c0.537-1.107-0.198-2.353-1.714-2.237l-11.867 0.852c-0.717 0.058-1.215 0.493-1.369 0.835l-9.98 22.265-6.161 0.458-1.81-20.62c-0.070-0.806-0.94-1.478-1.83-1.408l-10.62 0.765c-0.985 0.070-1.631 0.846-1.567 1.657l4.715 53.508z" />
<glyph unicode="&#xe933;" d="M650.825 839.517c0.293 0.811 1.386 1.313 2.32 1.059l11.167-3.031c0.926-0.26 1.505-1.204 1.212-2.020l-19.275-53.497c-0.293-0.811-1.386-1.307-2.32-1.053l-11.174 3.037c-0.926 0.254-1.505 1.204-1.212 2.014l19.282 53.491z" />
<glyph unicode="&#xe934;" d="M730.422 796.876l-10.538 6.315c-0.807 0.492-1.030 1.553-0.621 2.342l4.489 8.625c0.41 0.789 1.374 1.145 2.181 0.666l32.718-19.619c0.801-0.485 1.024-1.553 0.615-2.336l-4.483-8.632c-0.41-0.789-1.374-1.145-2.181-0.66l-10.532 6.322-21.975-42.259c-0.41-0.789-1.446-1.106-2.181-0.666l-8.845 5.299c-0.735 0.446-1.024 1.559-0.615 2.349l21.969 42.253z" />
<glyph unicode="&#xe935;" d="M805.594 701.379l4.523 15.71-0.058 0.065-13.634-6.464 9.169-9.31zM768.965 712.219l56.055 25.908c0.514 0.22 1.21 0.123 1.636-0.305l0.602-0.616c0.421-0.421 0.573-1.193 0.415-1.776l-18.25-64.246c-0.356-1.238-1.554-1.621-2.46-0.7l-6.703 6.795c-1.087 1.109-1.239 1.997-0.736 3.825l2.191 7.489-16.427 16.663-6.592-3.157c-0.958-0.499-2.285-0.629-3.495 0.609l-6.644 6.73c-0.9 0.921-0.666 2.282 0.409 2.781z" />
<glyph unicode="&#xe936;" d="M846.803 639.826l7.919 0.547c1.272 0.035 2.004-1.343 1.98-2.035 0.048-0.366-0.327-7.635 2.705-12.112 1.843-2.721 4.905-3.565 7.337-1.983 2.913 1.884 3.526 5.693 2.271 11.525-1.587 7.356-1.897 17.706 6.427 23.091 6.873 4.454 17.343 3.722 24.424-6.739 4.78-7.053 4.774-14.863 4.626-17.892 0.065-1.122-1.278-1.797-1.944-1.843h-7.687c-1.082-0.017-2.533 0.797-2.461 1.727-0.071 0.832 0.392 8.257-2.408 12.403-1.659 2.442-4.56 3.198-6.433 1.989-2.568-1.669-3.133-4.966-1.724-11.764 1.433-6.687 2.895-17.84-6.546-23.952-7.146-4.629-18.455-3.256-25.203 6.716-5.969 8.827-5.535 16.142-4.994 18.73 0.238 1.134 0.375 1.512 1.712 1.593z" />
<glyph unicode="&#xe937;" glyph-name="email" horiz-adv-x="1536" d="M1536-64h-1536v968l524-400-272-308 8-8 316 280 192-148 192 148 316-280 8 8-272 308 524 400v-968zM1504 960l-736-560-736 560h1472z" />
<glyph unicode="&#xe938;" glyph-name="bio_eco" d="M506.47 916.824c-263.061 0-477.082-213.426-477.082-475.757s214.021-475.757 477.082-475.757c263.061 0 477.082 213.426 477.082 475.757s-214.021 475.757-477.082 475.757zM506.47-63.997c-279.273 0-506.472 226.568-506.472 505.065s227.199 505.065 506.472 505.065c279.273 0 506.472-226.568 506.472-505.065s-227.199-505.065-506.472-505.065zM647.525 621.192c0-56.345-45.845-102.189-102.189-102.189h-13.046l56.661 56.661c4.723 4.723 4.723 12.379 0 17.102s-12.396 4.723-17.119 0l-56.661-56.661v13.046c0 56.362 45.845 102.207 102.189 102.207h30.165v-30.165zM490.958 536.104l-86.545 86.545c-4.723 4.741-12.379 4.741-17.102 0-4.723-4.723-4.723-12.379 0-17.102l86.545-86.545h-13.046c-56.345 0-102.189 45.845-102.189 102.189v30.165h30.148c56.362 0 102.189-45.845 102.189-102.207v-13.046zM659.623 675.552h-42.263c-50.41 0-94.007-29.674-114.287-72.463-20.28 42.79-63.895 72.463-114.305 72.463h-42.263c-6.672 0-12.098-5.408-12.098-12.098v-42.263c0-69.689 56.696-126.402 126.402-126.402h26.443v-0.14c3.705 0.228 7.462 0.334 11.185 0.298 7.462 0.281 14.925 0.228 22.387-0.158h24.511c69.689 0 126.385 56.713 126.385 126.402v42.263c0 6.69-5.408 12.098-12.098 12.098zM398.459 254.722c11.694 9.569 17.541 23.932 17.541 43.106 0 19.7-5.987 34.204-17.962 43.509-11.975 9.288-27.391 13.941-46.266 13.941h-97.168v-114.919h98.010c18.875 0 34.151 4.793 45.845 14.363zM387.046 472.954c-9.148 8.867-21.895 13.309-38.224 13.309h-94.218v-105.631h94.218c15.205 0.281 27.672 5.197 37.382 14.784 9.71 9.569 14.573 23.23 14.573 40.981 0 15.486-4.565 27.672-13.731 36.556zM426.991 347.254c10.693-12.677 16.048-29.164 16.048-49.427 0-27.619-8.533-48.25-25.565-61.911-17.049-13.66-38.242-20.491-63.596-20.491h-113.655c-3.652 0-6.69 1.212-9.078 3.599-2.405 2.388-3.582 5.408-3.582 9.078v270.415c0 3.652 1.176 6.69 3.582 9.078 2.388 2.388 5.426 3.582 9.078 3.582h111.969c23.669 0 42.175-6.479 55.554-19.419 13.397-12.976 20.069-30.709 20.069-53.237 0-14.942-3.652-28.322-10.974-40.138-7.339-11.834-17.751-20.438-31.271-25.776 16.909-4.232 30.709-12.677 41.42-25.354zM785.925 429.011c-9.727 19.279-23.247 34.291-40.56 45.002-17.33 10.693-37.118 16.048-59.365 16.048s-42.035-5.355-59.365-16.048c-17.33-10.711-30.85-25.723-40.56-45.002-9.727-19.297-14.573-41.192-14.573-65.703s4.846-46.407 14.573-65.703c9.71-19.297 23.23-34.291 40.56-44.984 17.33-10.711 37.118-16.066 59.365-16.066s42.035 5.355 59.365 16.066c17.312 10.693 30.832 25.688 40.56 44.984 9.71 19.297 14.573 41.192 14.573 65.703s-4.864 46.407-14.573 65.703zM809.366 285.156c-12.098-23.107-28.866-41.209-50.269-54.308-21.421-13.098-45.774-19.648-73.095-19.648s-51.692 6.549-73.095 19.648c-21.404 13.098-38.172 31.201-50.269 54.308-12.115 23.089-18.173 49.128-18.173 78.152 0 29.287 6.058 55.484 18.173 78.591 12.098 23.089 28.866 41.122 50.269 54.080s45.774 19.437 73.095 19.437c27.321 0 51.674-6.479 73.095-19.437 21.404-12.958 38.172-30.99 50.269-54.080 12.115-23.107 18.173-49.304 18.173-78.591 0-29.024-6.058-55.063-18.173-78.152zM512.16 219.236c-2.528-2.546-5.636-3.81-9.288-3.81-3.951 0-7.129 1.212-9.517 3.599s-3.582 5.548-3.582 9.499v269.555c0 3.951 1.264 7.129 3.793 9.517 2.546 2.388 5.777 3.582 9.727 3.582 3.652 0 6.76-1.264 9.288-3.793s3.81-5.636 3.81-9.306v-269.555c-0.281-3.67-1.686-6.76-4.232-9.288z" />
<glyph unicode="&#xe939;" glyph-name="vegan" d="M506.475 916.821c-263.061 0-477.082-213.426-477.082-475.757s214.021-475.757 477.082-475.757c263.061 0 477.082 213.426 477.082 475.757s-214.021 475.757-477.082 475.757zM506.475-64c-279.273 0-506.472 226.568-506.472 505.065s227.199 505.065 506.472 505.065c279.273 0 506.472-226.568 506.472-505.065s-227.199-505.065-506.472-505.065zM478.642 145.205c-7.309 0.514-12.826 6.865-12.294 14.174 19.922 280.835-78.072 358.605-114.952 387.875-5.819 4.612-10.112 8.178-12.542 10.963-4.807 5.535-4.222 13.926 1.313 18.715 5.535 4.807 13.926 4.204 18.733-1.313 1.721-1.969 4.896-4.346 8.976-7.593 32.747-25.971 109.914-87.208 125.046-271.184 28.738 83.979 84.529 163.701 189.476 204.235 6.812 2.608 15.593-0.302 18.254-7.167 2.661-6.847 0.355-14.085-6.457-16.746 0 0-2.217-0.851-2.217-0.869-150.006-57.92-191.108-205.353-199.162-318.815-0.514-7.291-6.865-12.79-14.174-12.276zM806.658 562.031c-84.068 12.063-163.239-0.568-215.926-35.231-22.086-14.493-37.164-36.721-42.504-62.603-5.34-25.847-0.266-52.243 14.227-74.293 29.022-44.101 92.813-57.281 136.914-28.259 20.436 13.429 34.699 50.593 49.795 89.922 14.813 38.548 31.133 81.141 57.494 110.464zM619.488 320.436c-33.049 6.83-61.468 26.13-80.023 54.336-18.538 28.206-25.013 61.946-18.183 94.995 6.812 33.084 26.113 61.485 54.318 80.041 64.395 42.344 163.275 55.188 264.426 34.308 5.446-1.118 9.704-5.428 10.732-10.892 1.064-5.482-1.277-11.034-5.943-14.103-33.244-21.855-51.906-70.461-69.929-117.454-16.711-43.568-32.534-84.76-60.368-103.067-28.224-18.52-61.982-24.977-95.031-18.165zM248.867 664.874c10.023-14.174 17.473-31.541 24.339-47.542 7.681-17.917 15.629-36.437 23.913-41.759 19.407-12.524 43.923-6.102 54.709 14.316 10.786 20.4 3.796 47.169-15.611 59.676-22.281 14.334-53.786 19.691-87.35 15.309zM334.85 543.11c-16.32-4.257-34.415-1.756-50.363 8.533-15.611 10.058-24.924 31.789-34.823 54.815-9.721 22.618-19.762 46.052-34.397 55.454-4.595 2.98-7.202 8.568-6.581 14.192 0.585 5.606 4.311 10.112 9.366 11.424 49.298 12.897 96.964 7.788 130.794-14.050 31.931-20.596 43.462-64.678 25.705-98.295-8.87-16.764-23.416-27.816-39.701-32.073z" />
<glyph unicode="&#xe93a;" glyph-name="gluten_free" horiz-adv-x="1005" d="M497.26 915.99c-258.278 0-468.408-209.546-468.408-467.106s210.13-467.106 468.408-467.106c258.278 0 468.408 209.546 468.408 467.106s-210.13 467.106-468.408 467.106zM497.26-46.998c-274.195 0-497.263 222.448-497.263 495.882s223.068 495.882 497.263 495.882c274.195 0 497.263-222.448 497.263-495.882s-223.068-495.882-497.263-495.882zM624.581 597.837l-18.529 18.478 208.908 208.327 18.529-18.478zM147.034 116.82l-18.529 18.478 159.415 158.972 18.529-18.478zM497.73 258.544c-8.661-1.798-20.866-3.656-34.171-3.656-15.948 0-33.499 2.666-48.546 11.318-27.817 16.025-42.053 49.233-48.072 67.604l-1.237 3.793 3.926 0.838c18.957 3.991 54.9 8.317 82.732-7.708 27.817-16.010 42.053-49.203 48.057-67.543l1.253-3.823-3.941-0.823zM497.73 429.504c-8.676-1.797-20.866-3.671-34.187-3.671-15.948 0-33.499 2.681-48.53 11.333-27.817 16.025-42.038 49.203-48.057 67.543l-1.253 3.823 3.956 0.823c19.033 3.961 55.099 8.226 82.702-7.662 27.817-16.010 42.053-49.203 48.057-67.559l1.253-3.808-3.941-0.823zM480.362 646.56c0 32.020 21.691 60.902 34.63 75.267l2.688 2.986 2.688-2.986c12.969-14.471 34.691-43.49 34.691-75.267 0-32.035-21.691-60.917-34.63-75.282l-2.688-2.986-2.688 3.001c-12.954 14.456-34.691 43.475-34.691 75.267zM535.048 434.089c6.080 18.417 20.408 51.701 48.011 67.589 27.801 16.025 63.745 11.714 82.702 7.738l3.926-0.823-1.253-3.823c-6.095-18.432-20.423-51.701-48.026-67.604-15.138-8.729-32.72-11.41-48.622-11.41-13.29 0-25.434 1.874-34.049 3.686l-3.956 0.823 1.268 3.823zM534.987 263.129c6.019 18.371 20.255 51.579 48.072 67.604 27.801 16.010 63.745 11.714 82.702 7.723l3.926-0.838-1.253-3.808c-6.095-18.432-20.423-51.716-48.026-67.604-15.138-8.713-32.705-11.41-48.622-11.41-13.32 0-25.464 1.874-34.11 3.702l-3.926 0.823 1.237 3.808zM517.726 170.024c7.317 0 13.259 5.941 13.259 13.238v49.538l4.292-0.838c12.388-2.407 24.624-3.625 36.401-3.625 23.891 0 44.757 5.042 62.003 14.974 41.397 23.825 58.108 73.332 63.363 93.531l0.382 1.447 21.309 12.278c3.070 1.767 5.27 4.616 6.187 8.028s0.443 6.977-1.329 10.039c-3.651 6.322-11.793 8.485-18.117 4.844l-21.325-12.278-1.451 0.411c-20.164 5.545-71.52 15.873-112.901-7.967-11.961-6.87-22.852-16.543-32.353-28.73l-6.462-8.272v87.103l4.292-0.823c12.404-2.422 24.639-3.641 36.401-3.641 23.876 0 44.742 5.042 62.003 14.974 41.397 23.84 58.093 73.347 63.347 93.531l0.382 1.462 21.325 12.263c6.339 3.656 8.508 11.76 4.858 18.082-3.651 6.306-11.793 8.47-18.117 4.844l-21.325-12.293-1.451 0.411c-20.164 5.56-71.52 15.873-112.901-7.952-11.961-6.885-22.852-16.558-32.369-28.745l-6.446-8.256v56.408l1.069 1.066c14.894 14.624 49.538 53.788 49.538 101.483 0 47.664-34.645 86.844-49.538 101.467l-1.069 1.066v24.556c0 7.281-5.957 13.222-13.274 13.222-7.302 0-13.259-5.941-13.259-13.222v-24.556l-1.069-1.051c-14.909-14.639-49.554-53.818-49.554-101.483 0-47.679 34.645-86.859 49.554-101.483l1.069-1.066v-56.408l-6.446 8.272c-9.517 12.171-20.408 21.844-32.369 28.73-41.397 23.84-92.753 13.512-112.916 7.952l-1.451-0.396-21.309 12.278c-3.086 1.767-6.66 2.224-10.067 1.31-3.422-0.914-6.294-3.092-8.050-6.154-1.787-3.062-2.245-6.626-1.329-10.039s3.101-6.276 6.171-8.028l21.325-12.278 0.382-1.462c5.27-20.184 21.966-69.706 63.363-93.531 17.261-9.932 38.112-14.974 62.003-14.974 11.747 0 23.998 1.219 36.401 3.641l4.292 0.838v-87.118l-6.446 8.272c-9.517 12.186-20.408 21.859-32.369 28.73-41.397 23.84-92.737 13.496-112.901 7.967l-1.451-0.411-21.325 12.278c-3.086 1.767-6.645 2.239-10.067 1.325s-6.294-3.108-8.050-6.169c-1.787-3.062-2.245-6.626-1.329-10.039s3.101-6.261 6.171-8.028l21.325-12.278 0.382-1.447c5.27-20.199 21.966-69.706 63.363-93.531 17.246-9.932 38.112-14.974 62.003-14.974 11.762 0 24.013 1.219 36.401 3.625l4.292 0.838v-49.538c0-7.297 5.957-13.238 13.274-13.238z" />
<glyph unicode="&#xe93b;" glyph-name="sugar_free" horiz-adv-x="1005" d="M497.263 915.996c-258.278 0-468.408-209.546-468.408-467.106 0-257.576 210.13-467.122 468.408-467.122s468.408 209.546 468.408 467.122c0 257.561-210.13 467.106-468.408 467.106zM497.263-46.992c-274.195 0-497.263 222.448-497.263 495.882s223.068 495.882 497.263 495.882c274.195 0 497.263-222.448 497.263-495.882s-223.068-495.882-497.263-495.882zM625.151 557.87l-18.529 18.478 217.676 217.071 18.529-18.478zM174.457 103.639l-18.529 18.478 197.527 196.979 18.529-18.478zM196.49 583.063c0.412 4.92 2.841 8.942 4.017 9.521 6.63-1.036 14.206 1.767 19.919 7.449 5.713 5.697 8.524 13.222 7.546 20.138l-1.085 7.556c0.137 1.173 2.734 3.747 4.094 3.884l7.393-1.082c6.92-1.021 14.466 1.828 20.179 7.525 5.713 5.682 8.539 13.222 7.531 20.138l-1.085 7.54c0.137 1.173 2.75 3.747 4.109 3.884l7.378-1.082c6.92-0.99 14.466 1.813 20.179 7.525 5.728 5.697 8.539 13.238 7.546 20.138l-1.085 7.556c0.137 1.173 2.75 3.747 4.109 3.884l7.378-1.082c6.95-0.96 14.481 1.843 20.179 7.54 5.728 5.682 8.539 13.222 7.546 20.123l-0.199 1.325c0.489 0.472 4.247 2.605 8.615 3.001 11.579 0.929 16.941-14.014 18.040-17.64l0.015-1.508 1.436-2.407c0.336-0.579 34.080-58.099 43.825-151.493l-11.961-11.943c-0.917 1.599-2.108 3.062-3.849 4.037-29.848 16.665-48.775 57.809-44.039 95.725 0.733 5.743-3.361 10.998-9.135 11.714-5.667 0.67-11.029-3.351-11.747-9.109-3.987-31.868 5.469-64.862 23.83-89.235-7.592 1.874-15.245 2.254-23.387 2.513-6.278 0.228-12.786 0.457-20.271 1.386-5.682 0.655-11.014-3.367-11.732-9.109-0.733-5.758 3.361-10.998 9.119-11.714 8.432-1.066 15.718-1.31 22.165-1.539 18.010-0.625 27.038-0.914 40.449-16.741 1.039-1.234 2.307-2.163 3.681-2.772l-11.426-11.394c-18.361 0.884-91.76 6.916-147.515 46.872l-3.025 1.508c-3.284 1.127-19.614 7.251-18.743 17.366zM341.393 450.246c0 8.454 3.269 16.345 9.196 22.255l114.016 113.715c6.156 6.124 14.237 9.201 22.317 9.201 6.309 0 12.572-1.919 17.949-5.636l-134.821-181.212-19.461 19.407c-5.927 5.91-9.196 13.832-9.196 22.271zM462.238 316.652l135.173 181.669 25.877-25.82c12.312-12.278 12.312-32.248 0-44.526l-114.016-113.7c-12.312-12.278-32.338-12.278-44.65 0l-2.383 2.376zM558.336 333.515l11.502 11.486c0.917-1.432 2.047-2.711 3.62-3.58 29.848-16.665 48.805-57.825 44.039-95.725-0.718-5.758 3.376-11.013 9.135-11.729 0.443-0.046 0.871-0.076 1.329-0.076 5.224 0 9.761 3.884 10.418 9.201 4.002 31.868-5.469 64.847-23.83 89.235 7.592-1.874 15.26-2.239 23.402-2.513 6.278-0.228 12.77-0.442 20.255-1.386 0.443-0.046 0.871-0.076 1.314-0.076 5.239 0 9.776 3.884 10.433 9.186 0.718 5.758-3.376 10.998-9.135 11.714-8.417 1.051-15.718 1.31-22.149 1.539-17.995 0.609-27.053 0.929-40.465 16.756-0.917 1.082-2.016 1.919-3.208 2.529l11.655 11.623c18.346-0.899 91.729-6.931 147.5-46.872l1.222-0.884 1.818-0.64c3.284-1.127 19.598-7.281 18.728-17.366-0.412-4.92-2.841-8.957-4.033-9.521-6.66 1.021-14.206-1.767-19.904-7.479-5.713-5.697-8.539-13.238-7.531-20.138l1.069-7.54c-0.122-1.158-2.734-3.763-4.094-3.884l-7.363 1.082c-6.95 0.929-14.481-1.828-20.209-7.54-5.713-5.697-8.508-13.222-7.531-20.123l1.085-7.54c-0.137-1.173-2.75-3.763-4.109-3.884l-7.348 1.082c-6.935 0.944-14.496-1.843-20.209-7.54s-8.524-13.222-7.531-20.123l1.085-7.54c-0.153-1.188-2.75-3.778-4.124-3.9l-7.348 1.082c-0.932 0.122-1.848 0.198-2.795 0.198-6.125 0-12.465-2.757-17.414-7.708-5.713-5.697-8.539-13.222-7.531-20.123l0.183-1.325c-0.489-0.487-4.231-2.62-8.615-3.016-11.854-0.746-17.017 14.121-18.056 17.686l-0.061 1.539-1.375 2.331c-0.351 0.579-34.095 58.114-43.825 151.508zM385.112 393.563l135.158 181.685 62.080-61.938-135.158-181.669-62.080 61.922zM175.517 584.86c-1.421-16.558 10.403-30.938 31.697-38.601 48.546-34.259 106.99-45.059 138.976-48.487l-10.479-10.435c-20.515-20.458-20.515-53.757 0-74.2l114.032-113.7c10.25-10.237 23.723-15.34 37.211-15.34 13.458 0 26.931 5.103 37.196 15.34l15.321 15.279c11.289-81.969 38.861-133.381 43.886-142.185 1.65-6.002 6.171-16.939 14.756-24.54 6.37-5.636 14.023-8.561 22.272-8.561 1.023 0 2.077 0.046 3.147 0.152 7.409 0.64 17.414 3.961 23.265 11.318 3.62 4.555 5.117 9.932 4.308 15.553l-0.183 1.325c0.137 1.173 2.734 3.747 4.109 3.884l7.363-1.082c6.95-0.975 14.481 1.828 20.194 7.54 5.713 5.697 8.524 13.222 7.531 20.123l-1.085 7.525c0.137 1.188 2.75 3.778 4.124 3.9l7.348-1.082c6.92-0.929 14.496 1.828 20.194 7.54 5.713 5.697 8.524 13.222 7.546 20.123l-1.085 7.54c0.137 1.173 2.734 3.763 4.109 3.884l7.348-1.066c6.935-0.914 14.481 1.813 20.194 7.51s8.539 13.222 7.546 20.138l-1.085 7.54c0.137 1.173 2.734 3.763 4.094 3.884 5.606-0.823 11.136 0.731 15.825 4.448 7.607 6.048 11.029 16.36 11.701 24.023 1.405 16.543-10.418 30.893-31.697 38.601-48.546 34.259-106.974 45.059-138.976 48.472l11.945 11.912c20.5 20.443 20.5 53.742 0 74.2l-120.249 119.945-0.55-0.716c-20.53 14.578-49.218 12.826-67.625-5.514l-16.803-16.741c-11.273 81.939-38.846 133.35-43.886 142.17-1.696 6.139-6.355 16.985-14.527 24.327-7.225 6.489-16.070 9.475-25.632 8.637-7.424-0.655-17.445-3.991-23.295-11.349-3.636-4.539-5.117-9.932-4.308-15.538l0.199-1.31c-0.137-1.188-2.734-3.778-4.109-3.9l-7.378 1.066c-6.905 1.021-14.466-1.813-20.179-7.51s-8.539-13.222-7.531-20.138l1.069-7.54c-0.122-1.173-2.734-3.763-4.094-3.884l-7.378 1.066c-6.935 1.051-14.481-1.813-20.194-7.525-5.713-5.682-8.524-13.222-7.531-20.123l1.085-7.556c-0.137-1.173-2.734-3.747-4.109-3.884l-7.378 1.082c-6.92 1.021-14.466-1.828-20.179-7.525-5.713-5.682-8.539-13.222-7.546-20.138l1.1-7.54c-0.153-1.158-2.734-3.747-4.109-3.884-5.576 0.807-11.121-0.716-15.81-4.433-7.622-6.048-11.044-16.376-11.701-24.023z" />
<glyph unicode="&#xe93c;" glyph-name="lactose_free" d="M506.467 916.823c-263.061 0-477.082-213.426-477.082-475.757s214.021-475.757 477.082-475.757c263.061 0 477.082 213.426 477.082 475.757s-214.021 475.757-477.082 475.757zM506.467-63.998c-279.273 0-506.472 226.568-506.472 505.065s227.199 505.065 506.472 505.065c279.273 0 506.472-226.568 506.472-505.065s-227.199-505.065-506.472-505.065zM149.757 120.168l-18.872 18.82 162.367 161.916 18.872-18.82zM706.729 656.593l-24.062 23.229 137.292 132.555 24.062-23.248zM516.635 362.98c10.733-20.025 20.025-40.031 20.025-46.27 0-7.983-7.547-16.251-20.309-16.251-10.164 0-18.565 7.396-18.565 16.251 0 6.372 8.704 26.396 18.849 46.27zM516.35 278.556c23.495 0 42.060 16.687 41.908 37.85 0 17.996-25.088 61.516-32.768 74.43-1.896 3.337-5.518 5.499-9.444 5.348-3.755 0-7.377-2.162-9.273-5.499-7.244-12.914-30.758-56.434-30.758-74.126 0-20.878 18.129-38.002 40.334-38.002zM649.857 144.71c0-19.987-16.194-36.2-36.2-36.2h-193.024c-20.006 0-36.2 16.213-36.2 36.2v374.025c0.057 12.933 1.214 25.847 3.47 38.609 17.256-0.436 34.247-4.532 49.778-12.060 10.752-5.158 22.3-8.476 34.152-9.842 16.839-0.038 33.527 3.072 49.209 9.178 12.952 5.139 26.738 7.851 40.657 8.021 9.083-1.365 17.901-4.096 26.188-8.078 17.825-8.401 37.148-13.141 56.851-13.938 1.479 0 3.034 0.114 4.532 0.19 0.209-4.020 0.588-8.002 0.588-12.060v-374.044zM402.049 606.951l38.684 92.767h152.823l38.609-92.805c6.865-16.725 11.738-34.209 14.469-52.091-17.275 0.436-34.247 4.551-49.778 12.079-10.771 5.158-22.319 8.457-34.171 9.823-16.839 0.038-33.545-3.072-49.228-9.197-12.952-5.101-26.719-7.813-40.638-8.002-9.083 1.365-17.901 4.096-26.169 8.078-16.801 7.813-34.854 12.516-53.324 13.862 2.408 8.666 5.31 17.161 8.723 25.486zM420.633 772.1c0 6.675 5.385 12.060 12.060 12.060h168.903c6.675 0 12.060-5.385 12.060-12.060v-36.2c0-6.656-5.385-12.060-12.060-12.060h-168.903c-6.675 0-12.060 5.404-12.060 12.060v36.2zM654.503 616.186l-36.523 87.628c12.117 6.125 19.759 18.508 19.816 32.085v36.2c0 19.987-16.213 36.2-36.2 36.2h-168.903c-19.987 0-36.2-16.213-36.2-36.2v-36.2c0.057-13.577 7.699-25.96 19.816-32.085l-36.523-87.628c-12.895-30.872-19.532-64-19.494-97.451v-374.025c0.038-33.299 27.022-60.283 60.34-60.321h193.024c33.318 0.038 60.302 27.022 60.321 60.321v374.025c0.038 33.451-6.58 66.579-19.475 97.451z" />
<glyph unicode="&#xe93d;" glyph-name="salt_free" horiz-adv-x="1005" d="M497.265 915.993c-258.278 0-468.408-209.546-468.408-467.106s210.13-467.106 468.408-467.106c258.278 0 468.408 209.546 468.408 467.106s-210.13 467.106-468.408 467.106zM497.265-46.995c-274.195 0-497.263 222.448-497.263 495.882s223.068 495.882 497.263 495.882c274.195 0 497.263-222.448 497.263-495.882s-223.068-495.882-497.263-495.882zM625.145 557.875l-18.529 18.478 217.676 217.071 18.529-18.478zM174.457 103.636l-18.529 18.478 197.527 196.994 18.529-18.493zM693.145 236.992c-3.559 0-7.042-1.447-9.547-3.945-2.52-2.513-3.956-5.987-3.956-9.536s1.436-7.007 3.956-9.521c2.505-2.513 5.988-3.945 9.547-3.945 3.544 0 7.027 1.432 9.547 3.945s3.956 5.971 3.956 9.521c0 3.534-1.436 7.022-3.956 9.536-2.52 2.498-6.003 3.945-9.547 3.945zM693.145 171.782c-3.559 0-7.042-1.447-9.547-3.945-2.52-2.513-3.956-5.987-3.956-9.521 0-3.549 1.436-7.022 3.956-9.521 2.505-2.513 5.988-3.961 9.547-3.961 3.544 0 7.027 1.447 9.547 3.961 2.52 2.498 3.956 5.971 3.956 9.521 0 3.534-1.436 7.007-3.956 9.521-2.52 2.498-6.003 3.945-9.547 3.945zM646.767 201.595c-3.544 0-7.027-1.432-9.547-3.945-2.52-2.483-3.956-5.956-3.956-9.521 0-3.534 1.436-7.022 3.956-9.521s6.003-3.945 9.547-3.945c3.544 0 7.027 1.447 9.547 3.945s3.956 5.987 3.956 9.521c0 3.565-1.436 7.022-3.956 9.521-2.52 2.513-6.003 3.945-9.547 3.945zM646.767 141.963c-3.544 0-7.027-1.447-9.547-3.945s-3.956-5.971-3.956-9.521c0-3.549 1.436-7.022 3.956-9.521 2.52-2.513 6.003-3.945 9.547-3.945s7.027 1.432 9.547 3.945c2.52 2.498 3.956 5.971 3.956 9.521s-1.436 7.022-3.956 9.521c-2.52 2.498-6.003 3.945-9.547 3.945zM697.502 352.266l-110.717-110.409c-6.95-6.931-18.239-6.931-25.189 0l-42.634 42.5 135.921 135.529 42.619-42.5c6.95-6.931 6.95-18.188 0-25.119zM257.675 512.579c-0.962 15.477 4.781 30.649 15.78 41.601l10.815 10.8c6.721-16.604 20.301-35.127 38.158-51.229l203.958-183.909-27.725-27.633-220.181 171.022c-12.266 9.521-19.858 23.87-20.805 39.347zM351.008 631.534c5.484 1.843 29.741-7.175 53.8-33.711l185.338-204.397-44.635-44.511-204.967 184.823c-26.61 23.992-35.638 48.182-33.805 53.651l44.268 44.145zM422.68 680.569c1.115 0 2.23-0.030 3.345-0.107 15.52-0.944 29.909-8.515 39.457-20.747l171.498-219.569-27.71-27.648-184.421 203.392c-16.146 17.807-34.721 31.35-51.356 38.052l10.815 10.785c10.204 10.176 24.028 15.842 38.372 15.842zM716.596 396.427l-50.883 50.757c-0.031 0.046-0.061 0.076-0.092 0.122l-178.83 228.968c-14.313 18.31-35.852 29.644-59.101 31.091-23.249 1.432-46.010-7.175-62.477-23.596l-110.854-110.546c-16.467-16.421-25.098-39.118-23.662-62.303 1.451-23.185 12.816-44.663 31.177-58.937l229.606-178.333c0.046-0.030 0.092-0.061 0.122-0.091l50.898-50.757c8.738-8.698 20.209-13.055 31.697-13.055 11.472 0 22.959 4.341 31.681 13.055l110.717 110.424c17.49 17.427 17.49 45.775 0 63.202z" />
<glyph unicode="&#xe93e;" glyph-name="ventaja01" horiz-adv-x="1074" d="M329.849 281.714c45.623-12.735 126.685-14.534 130.138-14.633h134.867c25.546 0 47.146-16.943 47.146-37.030s-21.6-37.058-47.146-37.058h-185.262v-49.581h185.262c53.979 0 97.919 38.857 97.919 86.639 0 47.768-43.94 86.611-97.919 86.611h-133.576c-22.659 0.623-85.226 3.711-116.864 12.551-4.12 1.247-102.314 30.386-187.134-25.428l-157.279-141.462 34.206-36.477 152.986 137.821c63.887 40.897 141.322 18.444 142.657 18.047zM909.911 381.406l-171.854-89.974c7.927-15.682 12.765-32.933 13.897-51.147l182.016 95.305c22.574 12.202 47.574 7.982 56.942-9.551 9.838-18.495-0.235-44.069-22-55.841l-373.679-201.509-33-1.318-321.502-8.752-3.059-0.859c-5.309-1.51-53.544-16.511-110.427-81.43l38.603-34.281c40.191 45.861 74.412 61.424 83.398 64.948l347.679 9.833c0.059 0 0.118-0.030 0.176-0.030 1.147 0 2.191 0.267 3.309 0.355h0.338v0.030c9.691 0.963 17.927 5.168 21.559 7.138l370.944 200.206c47.133 25.485 66.442 81.993 43.015 126.017-23.059 43.166-78.662 56.656-126.354 30.86zM855.491 561.677c-38.363-33.574-77.055-50.606-114.999-50.606-41.75 0-81.701 21.409-110.863 58.024l51.88 31.646 84.698-42.343c3.791-1.899 7.822-2.789 11.809-2.789 9.576 0 18.807 5.222 23.422 14.272 6.534 12.804 1.334 28.411-11.584 34.865l-55.941 27.966 172.228 105.055c12.333 7.522 16.169 23.515 8.572 35.726-7.613 12.225-23.782 15.993-36.085 8.486l-87.036-53.099 1.184 31.349c0.554 14.332-10.745 26.379-25.221 26.913-14.926 0.861-26.644-10.638-27.184-24.969l-2.503-66.051-134.57-82.089c-14.281 35.607-16.394 74.686-4.84 108.631 14.071 41.274 47.504 73.706 96.716 93.809 30.301 12.403 82.855 18.946 151.923 18.946 60.347 0 120.588-4.955 156.299-8.546-24.262-63.751-84.683-209.858-147.907-265.197zM408.144 729.030c-1.933-15.578-7.268-23.99-11.644-26.69-3.282-2.033-7.223-3.012-12.063-3.012-29.911 0-75.212 35.637-91.067 83.305-15.57 46.882-15.945 86.421-13.592 111.049 24.262-10.445 60.946-30.088 93.42-63.276 28.982-29.613 38.423-73.321 34.946-101.376zM1042.81 874.736c-3.956 0.519-98.080 12.611-195.711 12.611-76.965 0-134.824-7.685-171.944-22.863-80.382-32.847-113.11-86.228-126.388-125.233-16.799-49.271-12.573-106.198 10.745-156.047-11.569-8.62-39.981-30.904-65.217-59.182-15.090 66.199-33.762 115.782-51.295 151.864 8.946 12.27 14.881 28.218 17.203 46.808 5.11 41.26-8.152 101.732-49.332 143.837-64.692 66.125-141.673 86.451-144.91 87.281l-24.112 6.187-7.493-23.53c-0.944-2.967-22.763-73.855 9.186-170.068 21.819-65.621 85.028-119.001 140.894-119.001 4.646 0 9.096 0.49 13.442 1.217 25.73-54.508 55.147-144.119 67.944-282.422h52.674c-2.802 31.438-6.414 60.621-10.685 87.623 0.030 0.045 0.075 0.074 0.090 0.119 18.267 35.592 61.081 70.843 79.048 84.641 39.172-50.191 94.753-79.433 153.541-79.433 51.13 0 101.512 21.409 149.735 63.633 91.921 80.442 170.7 308.222 174.012 317.881l10.265 29.954-31.694 4.124z" />
<glyph unicode="&#xe93f;" glyph-name="ventaja02" horiz-adv-x="976" d="M929.665 436.255c-4.092 8.374-4.092 17.977 0 26.349l37.937 77.608c21.122 43.211 4.387 94.715-38.1 117.258l-76.307 40.488c-8.233 4.367-13.877 12.138-15.488 21.315l-14.924 85.086c-8.31 47.373-52.131 79.207-99.745 72.471l-85.531-12.099c-9.232-1.303-18.361 1.665-25.058 8.143l-62.085 60.060c-34.57 33.443-88.725 33.445-123.293 0l-62.087-60.066c-6.699-6.48-15.828-9.443-25.058-8.143l-85.531 12.099c-47.63 6.741-91.435-25.097-99.745-72.471l-14.924-85.082c-1.611-9.178-7.255-16.948-15.486-21.317l-76.307-40.488c-42.486-22.54-59.222-74.048-38.1-117.26l37.935-77.606c4.092-8.374 4.092-17.977 0-26.349l-37.937-77.606c-21.122-43.211-4.387-94.715 38.1-117.258l76.307-40.488c8.233-4.367 13.877-12.138 15.488-21.315l14.924-85.086c7.565-43.126 44.545-73.371 87.045-73.367 4.186 0 8.433 0.294 12.703 0.898l85.531 12.099c9.224 1.309 18.359-1.665 25.058-8.143l62.085-60.060c17.288-16.724 39.463-25.083 61.646-25.081 22.177 0.002 44.366 8.362 61.646 25.081l62.087 60.060c6.699 6.478 15.83 9.439 25.058 8.143l85.531-12.099c47.636-6.739 91.435 25.097 99.745 72.471l14.926 85.082c1.611 9.178 7.255 16.948 15.486 21.317l76.307 40.488c42.486 22.54 59.222 74.048 38.1 117.26l-37.937 77.608zM902.005 293.213l-76.307-40.488c-24.328-12.911-41.014-35.873-45.772-63.002l-14.924-85.084c-2.811-16.028-17.629-26.794-33.747-24.519l-85.531 12.099c-27.277 3.864-54.267-4.915-74.064-24.064l-62.087-60.058c-11.693-11.312-30.016-11.312-41.714 0l-62.085 60.060c-16.732 16.185-38.604 24.956-61.439 24.956-4.184 0-8.402-0.294-12.625-0.892l-85.531-12.099c-16.104-2.277-30.934 8.491-33.747 24.519l-14.926 85.086c-4.76 27.13-21.444 50.093-45.774 63l-76.307 40.488c-14.375 7.627-20.037 25.052-12.891 39.671l37.937 77.608c12.095 24.746 12.095 53.127 0 77.872l-37.937 77.608c-7.146 14.62-1.484 32.045 12.891 39.671l76.307 40.488c24.328 12.911 41.014 35.873 45.772 63.002l14.924 85.084c2.813 16.028 17.629 26.796 33.747 24.519l85.531-12.099c27.267-3.86 54.267 4.915 74.064 24.064l62.087 60.060c11.693 11.312 30.016 11.312 41.714 0l62.085-60.060c19.797-19.151 46.793-27.924 74.064-24.064l85.531 12.099c16.106 2.279 30.936-8.491 33.747-24.519l14.924-85.086c4.76-27.13 21.444-50.093 45.774-63l76.307-40.488c14.375-7.627 20.037-25.052 12.891-39.671l-37.937-77.606c-12.095-24.744-12.095-53.129 0-77.872l37.937-77.606c7.148-14.624 1.486-32.051-12.889-39.677zM703.045 663.76c-11.453 11.455-30.028 11.455-41.483 0l-387.175-387.177c-11.455-11.455-11.455-30.028 0-41.483 5.727-5.727 13.235-8.592 20.741-8.592s15.015 2.863 20.741 8.592l387.175 387.175c11.459 11.457 11.459 30.028 0.002 41.485zM371.385 713.426c-59.305 0-107.555-48.25-107.555-107.555s48.25-107.555 107.555-107.555c59.305 0 107.555 48.25 107.555 107.555s-48.25 107.555-107.555 107.555zM371.385 556.984c-26.957 0-48.887 21.931-48.887 48.889 0 26.957 21.931 48.887 48.887 48.887s48.889-21.931 48.889-48.887c-0.002-26.959-21.933-48.889-48.889-48.889zM606.047 400.542c-59.305 0-107.555-48.25-107.555-107.555s48.25-107.555 107.555-107.555c59.305 0 107.555 48.25 107.555 107.555s-48.25 107.555-107.555 107.555zM606.047 244.099c-26.957 0-48.889 21.931-48.889 48.887s21.931 48.887 48.889 48.887c26.957 0 48.887-21.931 48.887-48.887s-21.931-48.887-48.887-48.887z" />
<glyph unicode="&#xe940;" glyph-name="ventaja03" horiz-adv-x="1735" d="M476.828 762.894c0.002 0.005 0.004 0.010 0.006 0.015-0.002 0.002-0.004 0.004-0.006 0zM480.429 774.886c0.055 0.096 0.111 0.195 0.17 0.296-0.069-0.099-0.135-0.193-0.197-0.282l0.028-0.014zM1651.824 596.446c-41.715 44.815-100.648 69.542-166.146 69.542h-162.469v88.878c0 1.28-0.034 1.793-0.356 3.911 0.068-0.78 0.080-0.915 0.090-0.932-0.139 0.331-0.144 0.368-0.445 2.709 0.083-0.927 0.083-0.927 0.035-0.658-0.203 0.74-0.217 0.794-0.355 2.387 0.045-0.509 0.037-0.462 0-0.254-0.013 0.051-0.013 0.051-0.028 0.11-0.176 0.681-0.21 0.811-0.293 1.809-0.060 0.139-0.094 0.244-0.149 0.586-0.132 0.337-0.19 0.546-0.325 1.037-0.057 0.217-0.057 0.217-0.094 0.368-0.017 0.058-0.031 0.102-0.047 0.168-0.39 0.947-0.46 1.134-0.551 1.488-0.031-0.078 0.003-0.141 0.070-0.267 0.001-0.009 0.001-0.009-0.489 0.889-0.28 0.632-0.488 1.156-0.639 1.648-0.079 0.12-0.255 0.396-0.65 1.019 0.065-0.113 0.065-0.113-0.090 0.124-0.1 0.15-0.1 0.15-0.243 0.369-0.339 0.538-0.339 0.538-1.485 4.464l0.751-3.18c-0.166 0.332-0.166 0.332-0.28 0.551-0.161 0.238 0.114-0.19-0.787 1.227 0.129-0.258 0.287-0.447-0.090-0.071-1.082 1.258-1.082 1.258-1.422 1.795-0.078 0.117-0.078 0.117-0.108 0.16 0.015-0.033 0.015-0.033-0.426 0.551-0.101 0.151-0.171 0.238-0.589 0.716-0.481 0.513-0.481 0.513-1.011 1.044 0 0 0 0-0.378 0.378l-160.669 162.090c-6.756 6.756-15.574 10.36-25.19 10.36h-440.477c-9.305 0-18.267-3.741-25.19-10.36l-160.691-160.691c0 0 0 0-0.356-0.356-0.718-0.719-0.718-0.719-1.12-1.151-0.258-0.297-0.331-0.389-1.186-1.464 0.024 0.056 0.051 0.122 0.083 0.197-0.045-0.090-0.091-0.179-0.137-0.265-0.041-0.052-0.084-0.105-0.128-0.161 0.039 0.046 0.076 0.088 0.11 0.127-0.492-0.906-1.058-1.609-1.623-2.18-0.082-0.153-0.185-0.344-0.363-0.669-0.524-0.905-0.524-0.905-0.347-0.408-0.396-0.746-0.396-0.746-0.734-1.284-0.142-0.219-0.142-0.219-0.243-0.369-0.155-0.237-0.155-0.237-0.090-0.124-0.229-0.46-0.229-0.46-0.539-1.046-0.542-0.999-0.542-0.999-0.528-0.732-0.166-0.306-0.28-0.517-0.357-0.659l-0.111-0.579-0.242-0.539c0.241 0.592 0.241 0.592 0.122 0.205-0.231-1.009-0.251-1.099-0.691-1.767-0.153-0.65-0.175-0.704-0.467-1.416l-0.113-0.273c0.099 0.314 0.123 0.552 0.123 0.745l-0.246-1.043-0.149-0.36c0.049 0.098 0.092 0.19 0.13 0.278l-0.485-2.056c0.238 0.476 0.333 0.841 0.392 1.296 0.006 0.107 0.006 0.107 0.003-0.249-0.171-1.993-0.171-1.993-0.39-2.791-0.048-0.268-0.048-0.268 0.035 0.658-0.156-1.825-0.17-1.992-0.381-2.732-0.035-0.628-0.105-1.259-0.214-2.074-0.116-0.909-0.115-0.899-0.115-0.882v-674.403c0-19.536 16.014-35.55 35.55-35.55h117.868l1.364-5.356c14.003-54.989 64.111-94.542 121.448-94.542s107.445 39.553 121.448 94.542l1.364 5.356h461.13l1.364-5.356c14.003-54.989 64.111-94.542 121.448-94.542 57.565 0 107.412 39.425 121.448 94.542l1.364 5.356h87.295c19.536 0 35.55 16.014 35.55 35.55v317.146c0.349 81.319-22.981 149.881-67.067 197.414zM1321.833 764.227c-0.014 0.174-0.029 0.371-0.047 0.595 0.024-0.277 0.042-0.473 0.054-0.611-0.002 0.005-0.005 0.011-0.007 0.016zM1321.876 763.89c0.002-0.004 0.004-0.002 0.006 0-0.002 0.005-0.005 0.010-0.007 0.016zM1320.76 768.522c-0.013 0.068-0.027 0.138-0.041 0.21l0.048-0.205-0.008-0.005zM496.041 774.953c-0.018-0.017-0.035-0.034-0.053-0.051-0.027-0.039-0.008-0.022 0.060 0.126zM493.082 770.026c0.256 0.652 0.367 1.178 0.367 1.905l-0.367-1.905zM1202.141 790.417h-265.017v89.59h172.068l5.016-2.071 87.932-87.519zM704.266 880.363h161.758v-89.59h-254.294l87.508 87.508 5.028 2.083zM561.35 719.317h690.758v-602.947h-361.91c-0.489 0-0.489 0-0.889 0s-0.4 0-0.889 0h-4.675l-1.853 4.292c-19.629 45.458-64.704 75.698-115.056 75.698-50.728 0-95.786-30.26-115.404-76.035l-2.273-5.303-5.658 1.132c-0.88 0.176-1.748 0.217-4.294 0.217h-77.858v602.947zM766.836 16.471c-29.88 0-54.394 24.514-54.394 54.394s24.514 54.394 54.394 54.394c29.88 0 54.394-24.514 54.394-54.394s-24.514-54.394-54.394-54.394zM1473.59 16.471c-29.88 0-54.394 24.514-54.394 54.394s24.514 54.394 54.394 54.394c29.88 0 54.394-24.514 54.394-54.394 0-29.994-24.273-54.394-54.394-54.394zM1648.502 116.37h-57.647l-1.853 4.292c-19.629 45.458-64.704 75.698-115.056 75.698s-95.427-30.24-115.056-75.698l-1.853-4.292h-33.472v478.519h162.469c101.644 0 162.469-74.51 162.469-197.309v-281.209zM405.993 619.417h-233.57c-19.536 0-35.55-16.014-35.55-35.55s16.014-35.55 35.55-35.55h233.57c19.536 0 35.55 16.014 35.55 35.55s-16.014 35.55-35.55 35.55zM405.993 453.393h-363.331c-19.536 0-35.55-16.014-35.55-35.55s16.014-35.55 35.55-35.55h363.331c19.536 0 35.55 16.014 35.55 35.55s-16.014 35.55-35.55 35.55zM405.993 287.37h-233.57c-19.536 0-35.55-16.014-35.55-35.55s16.014-35.55 35.55-35.55h233.57c19.536 0 35.55 16.014 35.55 35.55s-16.014 35.55-35.55 35.55z" />
<glyph unicode="&#xe941;" glyph-name="ventaja04" d="M210.201 76.581c-1.728 0.016-3.68 0.336-5.872 0.96l-1.744 0.688c-1.552 0.592-2.912 1.28-4.224 2.096-0.304 0.208-0.608 0.384-0.912 0.544-0.192 0.176-0.368 0.336-0.56 0.464-2.384 1.84-4.048 3.504-5.232 5.28l-67.392 101.086c-6.928 10.384-4.096 24.463 6.272 31.375 3.744 2.496 8.080 3.808 12.56 3.808 7.6 0 14.64-3.76 18.816-10.048l40.336-60.495c2.016-3.024 5.392-4.864 9.008-4.928h0.192c3.568 0 6.912 1.728 9.008 4.64l140.080 196.124c4.24 5.936 11.168 9.472 18.48 9.472 4.704 0 9.216-1.44 13.040-4.192 4.96-3.536 8.208-8.752 9.2-14.72 0.992-5.952-0.4-11.952-3.92-16.864l-167.632-234.715c-0.672-0.512-1.488-1.216-2.272-2.144l-0.608-0.736c-1.232-1.472-2.336-2.8-3.376-3.632-0.816-0.336-1.472-0.624-2.112-0.992-0.496-0.272-0.96-0.448-1.456-0.672-3.648-1.584-6.448-2.336-8.896-2.432-0.272 0.016-0.528 0.032-0.784 0.032zM210.626-44.984c-116.132 0-210.629 94.497-210.629 210.644 0 116.132 94.497 210.629 210.629 210.629 11.694 0 21.214-9.52 21.214-21.199 0-11.709-9.52-21.214-21.214-21.214-92.758 0-168.215-75.472-168.215-168.215 0-92.758 75.457-168.215 168.215-168.215s168.215 75.457 168.215 168.215c0 11.694 9.505 21.199 21.199 21.199s21.214-9.505 21.214-21.199c0-116.147-94.497-210.644-210.629-210.644zM765.719 257.255c-9.246 0-17.509 5.325-21.053 13.563-2.336 5.45-2.352 11.429-0.048 16.864 2.32 5.45 6.685 9.685 12.306 11.959l74.112 29.85c4.14 1.666 6.83 5.59 6.83 9.919v76.518c0 12.161 10.228 22.034 22.809 22.034 12.548 0 22.776-9.872 22.776-22.034v-90.952c-0.322-1.121-0.532-2.040-0.628-3.021-0.081-0.747-0.081-1.479 0-2.211 1.015-9.826-4.365-18.857-13.402-22.501l-94.956-38.274c-2.835-1.137-5.75-1.713-8.747-1.713zM967.92 243.79c0-4.265-2.577-8.115-6.535-9.787l-387.597-161.485c-1.319-0.537-2.7-0.813-4.080-0.813-2.071 0-4.126 0.598-5.891 1.764-2.945 1.979-4.709 5.292-4.709 8.851v457.594c0 4.28 2.577 8.13 6.504 9.787l387.628 161.515c1.319 0.537 2.7 0.798 4.080 0.798 2.056 0 4.111-0.598 5.875-1.764 2.961-1.979 4.725-5.292 4.725-8.821v-457.64zM541.467 586.655c-1.304-0.552-2.685-0.828-4.065-0.828s-2.777 0.276-4.080 0.828l-368.253 153.447c-3.942 1.641-6.52 5.492-6.52 9.772 0 4.295 2.577 8.13 6.52 9.787l148.154 61.728c1.319 0.552 2.7 0.828 4.096 0.828 1.381 0 2.777-0.276 4.065-0.828l368.253-153.447c3.942-1.641 6.52-5.492 6.52-9.772s-2.577-8.146-6.52-9.787l-148.17-61.728zM397.209 856.395l136.112 56.728c1.304 0.522 2.7 0.798 4.080 0.798s2.761-0.276 4.065-0.798l368.269-153.462c3.942-1.657 6.52-5.492 6.52-9.787 0-4.28-2.577-8.13-6.52-9.772l-130.697-54.473c-7.685-2.807-16.214-2.163-23.363 1.825l-358.466 149.351c-3.958 1.657-6.535 5.522-6.535 9.802 0 4.265 2.577 8.13 6.535 9.787zM1011.241 750.242c-0.031 2.071-0.506 4.372-1.565 7.302-0.153 0.399-0.276 0.782-0.46 1.181-1.028 2.301-2.24 4.188-3.666 5.753-0.399 0.337-0.813 0.66-1.166 1.012l-0.614 0.583c-0.813 0.767-1.58 1.503-2.132 1.871-0.614 0.399-1.289 0.66-1.948 0.951l-1.074 0.491c-0.66 0.291-1.227 0.629-1.703 0.951l-451.166 187.992c-2.623 1.104-5.415 1.657-8.376 1.657-2.899 0-5.676-0.552-8.314-1.657l-451.182-187.992c-0.46-0.307-1.012-0.644-1.687-0.951l-1.104-0.506c-0.66-0.291-1.335-0.537-1.933-0.936-0.552-0.368-1.335-1.12-2.163-1.918l-0.598-0.537c-0.322-0.337-0.69-0.644-1.12-0.997-1.457-1.58-2.654-3.467-3.697-5.768-0.184-0.399-0.307-0.782-0.568-1.519-0.951-2.608-1.427-4.909-1.457-6.826 0-0.322-0.031-0.706-0.061-1.12v-295.971c0-11.965 9.726-21.706 21.691-21.706s21.706 9.741 21.706 21.706v248.141c0 3.528 1.764 6.842 4.725 8.821 1.764 1.166 3.804 1.764 5.875 1.764 1.365 0 2.761-0.261 4.065-0.798l387.628-161.515c3.958-1.657 6.535-5.507 6.535-9.787v-506.069c0-2.209 0.491-4.587 1.58-7.517l0.261-0.706c0.077-0.245 0.169-0.506 0.291-0.767 1.074-2.347 2.424-4.341 3.835-5.814 2.592-2.669 5.538-4.387 9.051-5.599 2.148-0.721 4.387-1.289 6.673-1.289 2.869 0 5.691 0.568 8.544 1.764l452.025 188.33c8.1 3.39 13.346 11.229 13.346 20.019v526.977c-0.046 0.353-0.061 0.69-0.077 0.997z" />
<glyph unicode="&#xe942;" glyph-name="facebook" horiz-adv-x="602" d="M548 944v-150.857h-89.714c-70.286 0-83.429-33.714-83.429-82.286v-108h167.429l-22.286-169.143h-145.143v-433.714h-174.857v433.714h-145.714v169.143h145.714v124.571c0 144.571 88.571 223.429 217.714 223.429 61.714 0 114.857-4.571 130.286-6.857z" />
<glyph unicode="&#xe943;" glyph-name="arrow-right" d="M849.067 409.6c4.267 8.533 4.267 21.333 0 34.133-4.267 4.267-4.267 8.533-8.533 12.8l-298.667 298.667c-17.067 17.067-42.667 17.067-59.733 0s-17.067-42.667 0-59.733l226.133-226.133h-494.933c-25.6 0-42.667-17.067-42.667-42.667s17.067-42.667 42.667-42.667h494.933l-226.133-226.133c-17.067-17.067-17.067-42.667 0-59.733 8.533-8.533 21.333-12.8 29.867-12.8s21.333 4.267 29.867 12.8l298.667 298.667c4.267 4.267 8.533 8.533 8.533 12.8z" />
<glyph unicode="&#xe944;" glyph-name="arrow-left" d="M810.667 469.334h-494.933l226.133 226.133c17.067 17.067 17.067 42.667 0 59.733s-42.667 17.067-59.733 0l-298.667-298.667c-4.267-4.267-8.533-8.533-8.533-12.8-4.267-8.533-4.267-21.333 0-34.133 4.267-4.267 4.267-8.533 8.533-12.8l298.667-298.667c8.533-8.533 21.333-12.8 29.867-12.8s21.333 4.267 29.867 12.8c17.067 17.067 17.067 42.667 0 59.733l-226.133 226.133h494.933c25.6 0 42.667 17.067 42.667 42.667s-17.067 42.667-42.667 42.667z" />
<glyph unicode="&#xe945;" glyph-name="arrow_newsletter" horiz-adv-x="1707" d="M1691.732 292.361c-13.688-70.307-41.734-137.502-64.8-204.766-10.934-31.982-19.65-116.642-65.862-125.336-38.7-7.332-74.498 41.421-98.036 63.861-63.763 60.849-128.761 120.676-190.706 183.224-13.605 13.726 7.338 34.058 22.265 21.507 45.189-37.949 89.116-77.193 133.562-115.927 9.033-7.876 64.727-61.521 94.461-84.936-129.091 310.346-324.846 666.873-672.503 810.353-368.722 152.2-809.967-148.354-807.412-502.061 0.114-17.304-31.255-16.287-32.594 1.348-26.456 354.839 356.958 639.842 722.69 589.762 200.76-27.518 367.288-168.061 502.202-310.019 142.964-150.366 285.416-345.096 330.458-543.052 8.003 30.695 14.53 64.296 17.976 74.947 16.936 52.466 31.035 107.321 54.975 156.814 11.651 24.193 59.227 14.57 53.325-15.718z" />
<glyph unicode="&#xe946;" glyph-name="delivery_express" horiz-adv-x="1820" d="M1813.052 739.355c-0.196 3.237-0.392 6.474-1.635 9.711-0.719 1.841-2.027 3.11-3.073 4.76-0.719 1.142-1.242 2.158-2.027 3.174-3.662 4.633-8.174 8.188-13.601 10.219-0.196 0.063-0.262 0.254-0.458 0.317l-523.128 190.347c-7.912 2.983-16.609 2.793-24.325-0.444l-457.737-190.347c-0.458-0.19-0.654-0.698-1.112-0.889-4.512-2.095-8.305-5.332-11.443-9.33-0.915-1.142-1.7-2.158-2.485-3.427-0.654-1.079-1.635-1.841-2.158-3.047-1.766-4.062-2.616-8.251-2.616-12.44v-571.296c0-12.694 7.782-24.182 19.813-29.196l457.802-190.411c3.989-1.65 8.305-2.539 12.817-2.539 3.923 0 7.782 0.698 11.509 2.031l1.177 0.444c0 0 0 0 0.065 0l521.885 189.967c12.751 4.633 21.187 16.502 21.187 29.704v571.233c0 0.571-0.458 0.952-0.458 1.46zM1224.991 24.426l-392.346 163.182v502.115l392.346-163.182v-502.116zM1258.471 581.695l-375.475 156.2 375.475 156.137 429.226-156.137-102.337-37.257-183.487 79.782c-9.286 4.062-19.879 3.618-28.707-1.079l-128.232-52.871c-12.097-4.951-19.944-16.629-19.944-29.387 0-12.821 7.978-24.436 20.271-29.323l118.946-47.666-105.737-38.4zM1486.555 596.928l65.391 23.801v-154.677l-65.391-23.801v154.677zM1453.99 652.845l-111.819 44.747 46.297 19.105 109.857-47.73-44.335-16.121zM1748.118 188.687l-457.737-166.61v503.446l130.782 47.603v-176.701c0-10.409 5.297-20.12 14.059-26.086 5.558-3.745 12.032-5.649 18.636-5.649 3.858 0 7.782 0.698 11.509 2.031l130.782 47.603c12.751 4.697 21.187 16.502 21.187 29.704v200.503l130.782 47.603v-503.446zM139.501 655.355h523.128v-67.699h-523.128v67.699zM139.501 350.71h523.128v-67.699h-523.128v67.699zM0 519.957h523.128v-67.699h-523.128v67.699z" />
<glyph unicode="&#xe947;" glyph-name="star_empty" horiz-adv-x="1088" d="M620.351 927.773l116.768-236.603c8.12-16.456 23.82-27.858 41.982-30.493l261.114-37.944c45.74-6.651 63.988-62.844 30.903-95.086l-188.941-184.168c-13.13-12.806-19.134-31.271-16.024-49.346l44.595-260.056c7.818-45.545-39.995-80.271-80.898-58.784l-233.536 122.772c-16.24 8.53-35.655 8.53-51.895 0l-233.536-122.772c-40.902-21.509-88.715 13.238-80.898 58.784l44.595 260.056c3.11 18.076-2.894 36.54-16.024 49.346l-188.941 184.168c-33.085 32.264-14.836 88.456 30.903 95.086l261.114 37.944c18.162 2.635 33.862 14.037 41.982 30.493l116.768 236.603c20.43 41.442 79.515 41.442 99.967 0z" />
<glyph unicode="&#xe948;" glyph-name="offers_icon" horiz-adv-x="1243" d="M1166.91 932.059h-908.184c-22.377 0-42.805-12.635-52.784-32.65l-193.481-386.843c-16.591-33.241-16.591-72.385 0-105.626l193.422-386.902c9.978-20.015 30.466-32.65 52.784-32.65h908.184c32.591 0 59.042 26.451 59.042 59.042v826.588c0.059 32.591-26.392 59.042-58.983 59.042zM487.927 725.412c65.241 0 118.084-52.843 118.084-118.084s-52.843-118.084-118.084-118.084c-65.241 0-118.084 52.843-118.084 118.084s52.843 118.084 118.084 118.084zM842.179 134.992c-65.241 0-118.084 52.843-118.084 118.084s52.843 118.084 118.084 118.084c65.241 0 118.084-52.843 118.084-118.084s-52.902-118.084-118.084-118.084zM453.328 134.992l-83.485 83.485 506.935 506.935 83.485-83.485-506.935-506.935z" />
<glyph unicode="&#xe949;" d="M1024 448c0-282.77-229.23-512-512-512s-512 229.23-512 512c0 282.77 229.23 512 512 512s512-229.23 512-512z" />
<glyph unicode="&#xe94a;" d="M699.802 266.149c-8.131 8.759-16.559 17.072-24.838 25.089-4.14 4.008-8.279 8.165-12.419 12.322l-36.074 36.223c-15.376 15.439-33.413 23.604-51.894 23.604-18.628 0-36.518-8.165-51.894-23.604-3.696-3.711-7.54-7.423-11.236-11.134-8.575-8.462-17.446-17.221-26.021-26.425-15.228 7.423-30.752 17.666-48.789 31.918-23.507 19.299-43.614 38.598-61.503 59.085-9.61 11.134-26.464 12.322-37.553 2.524-11.088-9.65-12.271-26.573-2.513-37.708 19.811-22.862 42.136-44.388 68.157-65.617 0.148 0 0.148-0.148 0.296-0.148 26.169-20.784 48.197-34.442 71.705-44.091 0.591-0.297 1.183-0.445 1.774-0.594 5.618-1.93 22.472-7.571 39.031 8.907 0.296 0.297 0.739 0.742 1.035 1.039 10.053 11.431 20.698 21.823 31.935 32.957 3.844 3.711 7.688 7.571 11.532 11.431 3.548 3.563 9.019 8.017 14.341 8.017s10.645-4.305 14.341-8.017l36.074-36.223c4.288-4.305 8.723-8.61 12.863-12.767 8.279-8.017 15.967-15.736 23.359-23.604 0.148-0.297 0.444-0.445 0.591-0.594 5.618-5.641 11.68-14.549-0.296-27.316l-45.093-45.279c-9.61-9.65-20.255-14.697-33.709-15.885-22.916-1.93-47.31 2.524-79.097 14.4-52.928 19.596-102.309 49.436-155.681 93.972-64.46 54.186-115.171 119.209-150.95 193.289-12.715 26.87-27.647 62.5-30.16 100.356-1.331 21.081 4.288 36.223 17.889 48.99 9.906 8.313 18.628 17.369 26.908 25.98 5.322 5.641 10.349 10.837 15.672 15.736l0.148 0.148c10.497 10.095 19.22 10.243 28.978 0.445l72.888-73.188c0.148-0.148 0.296-0.297 0.444-0.445 3.105-2.969 6.801-7.571 6.949-12.619 0-5.344-3.992-10.54-7.244-13.955l-45.241-45.427c-10.349-10.392-10.349-27.316 0-37.856 10.349-10.392 27.203-10.392 37.7 0l45.241 45.427c15.228 15.291 23.064 33.254 22.916 52.256-0.148 18.557-8.131 36.075-23.064 50.475l-72.74 73.040c-30.456 30.582-71.853 30.73-103.344 0.445-6.209-5.79-11.828-11.728-17.446-17.518-7.836-8.165-15.228-15.885-23.212-22.565-0.296-0.297-0.591-0.594-1.035-0.891-25.873-23.604-37.7-54.483-35.483-91.894 3.105-46.912 20.403-88.776 35.187-119.952v-0.148c39.179-81.056 94.473-152.018 164.699-211.103 58.103-48.396 112.51-81.205 171.204-103.028 21.585-8.017 53.076-18.112 87.968-18.112 4.583 0 9.314 0.148 14.045 0.594h0.148c25.873 2.227 48.345 12.767 66.826 31.324l45.241 45.427c0.148 0.148 0.296 0.297 0.444 0.445 29.125 30.433 28.978 72.298 0 101.84z" />
<glyph unicode="&#xe94b;" d="M683.177 424.030c-9.882 57.972-37.298 110.848-79.217 152.893-41.601 41.727-94.519 69.121-152.697 78.995-15.62 2.707-30.444-7.804-33.153-23.412s7.81-30.419 23.43-33.127c46.223-7.804 88.462-29.782 121.934-63.228s55.468-75.65 63.278-121.837c2.391-14.015 14.505-23.89 28.212-23.89 1.594 0 3.188 0.159 4.782 0.478 15.62 2.707 26.14 17.519 23.43 33.127z" />
<glyph unicode="&#xe94c;" d="M835.166 459.135c-14.772 87.193-56.017 166.631-119.055 229.685s-142.456 104.309-229.626 119.085c-14.333 2.487-27.935-7.169-30.422-21.506s7.167-27.943 21.5-30.43c76.347-13.020 145.966-49.009 201.252-104.309s91.412-124.937 104.282-201.304c2.194-12.874 13.31-21.944 25.888-21.944 1.463 0 2.925 0.146 4.388 0.439 14.626 2.341 24.279 15.946 21.793 30.283z" />
<glyph unicode="&#xe94d;" glyph-name="lateral_arrow" horiz-adv-x="614" d="M592.295 397.307l-463.447-440.29c-29.481-28.022-77.279-28.022-106.746 0-29.469 27.997-29.469 73.406 0 101.401l410.080 389.589-410.068 389.576c-29.469 28.009-29.469 73.413 0 101.41 29.469 28.009 77.265 28.009 106.746 0l463.447-440.297c14.734-14.005 22.093-32.342 22.093-50.687 0-18.354-7.373-36.704-22.105-50.703z" />
<glyph unicode="&#xe94e;" glyph-name="leafs_naturitas" horiz-adv-x="1240" d="M1101.153 919.814c-10.603 19.497-39.508 65.487-89.504 22.217-153.391-110.435-561.857-456.293-404.887-914.075 10.544-32.35 36.083-23.92 43.837-18.194 125.815 87.993 252.762 392.418 293.083 526.229 8.542 28.336 20.38 40.823 23.987 6.353 9.131-87.254-5.041-282.854-219.031-576.275-5.92-8.112-5.601-21.842 15.634-15.501 148.648 44.396 719.338 265.926 336.881 969.246zM652.389 616.805c4.524 7.888 13.289 24.855-0.23 39.458-4.34 4.643-8.821 9.283-13.452 13.911-100.227 100.226-269.155 196.553-530.498 283.916-23.51 11.101-45.481 8.429-57.172-24.258-41.216-131.459-147.218-566.577 164.606-802.236 102.576-77.522 223.588-116.028 282.277-131.326 33.103-10.616 36.982 6.561 37.255 14.497 5.612 165.296-126.043 479.104-238.588 648.712-18.794 28.328-31.513 56.568 3.036 26.623 60.092-52.084 156.493-149.443 233.689-291.982 5.675-10.48 21.207-9.889 23.935 1.082 17.299 69.654 46.874 135 83.987 201.846 3.649 6.57 7.369 13.155 11.156 19.757z" />
<glyph unicode="&#xe94f;" glyph-name="return" horiz-adv-x="614" d="M22.105 397.307l463.447-440.29c29.481-28.022 77.279-28.022 106.746 0 29.469 27.997 29.469 73.406 0 101.401l-410.079 389.589 410.068 389.576c29.469 28.009 29.469 73.413 0 101.41-29.469 28.009-77.265 28.009-106.746 0l-463.447-440.297c-14.734-14.005-22.093-32.342-22.093-50.687 0-18.354 7.373-36.704 22.105-50.703z" />
<glyph unicode="&#xe950;" glyph-name="close" d="M810 664.667l-238-238 238-238-60-60-238 238-238-238-60 60 238 238-238 238 60 60 238-238 238 238z" />
<glyph unicode="&#xe951;" glyph-name="remover" horiz-adv-x="910" d="M734.349 76.823c0-9.649-1.494-18.558-4.453-26.635-2.989-8.108-6.097-13.996-9.265-17.726-3.198-3.761-5.409-5.611-6.695-5.611h-530.363c-1.255 0-3.497 1.85-6.665 5.611-3.198 3.73-6.276 9.618-9.265 17.726-2.989 8.077-4.453 17.017-4.453 26.635v623.332h571.158v-623.332zM337.19 861.26c2.989 3.946 6.605 6.35 10.849 7.214h202.061c4.274-0.863 7.89-3.268 10.849-7.214l30.604-76.945h-285.564l31.201 76.945zM891.79 778.395c-3.825 3.946-8.697 5.919-14.644 5.919h-196.981l-44.62 109.808c-6.396 16.215-17.842 30.026-34.429 41.401-16.587 11.406-33.383 17.109-50.358 17.109h-204.004c-16.975 0-33.772-5.703-50.329-17.109-16.587-11.375-28.063-25.186-34.429-41.401l-44.62-109.808h-196.981c-5.947 0-10.819-1.973-14.644-5.919s-5.738-8.971-5.738-15.105v-42.11c0-6.135 1.913-11.16 5.738-15.105s8.697-5.919 14.644-5.919h61.177v-625.952c0-36.407 10.012-67.389 29.976-93.068 19.964-25.648 43.993-38.442 72.026-38.442h530.363c28.063 0 52.062 13.256 72.056 39.767 19.964 26.542 29.946 57.956 29.946 94.363v623.332h61.177c5.977 0 10.849 1.973 14.674 5.919s5.738 8.971 5.738 15.105v42.11c0 6.135-1.913 11.16-5.738 15.105zM261.034 130.092h40.157c5.854 0 10.679 2.008 14.415 6.025 3.766 4.016 5.648 9.131 5.648 15.407v385.509c0 6.244-1.883 11.359-5.648 15.375-3.736 4.016-8.561 6.025-14.415 6.025h-40.157c-5.854 0-10.679-2.008-14.445-6.025s-5.648-9.131-5.648-15.375v-385.509c0-6.276 1.883-11.39 5.648-15.407s8.59-6.025 14.445-6.025zM421.64 130.092h40.172c5.857 0 10.683 2.008 14.421 6.025 3.796 4.016 5.651 9.131 5.651 15.407v385.509c0 6.244-1.854 11.359-5.651 15.375-3.738 4.016-8.564 6.025-14.421 6.025h-40.172c-5.857 0-10.683-2.008-14.45-6.025s-5.621-9.131-5.621-15.375v-385.509c0-6.276 1.854-11.39 5.621-15.407s8.593-6.025 14.45-6.025zM582.289 130.092h40.157c5.854 0 10.679 2.008 14.415 6.025 3.766 4.016 5.648 9.131 5.648 15.407v385.509c0 6.244-1.883 11.359-5.648 15.375-3.736 4.016-8.561 6.025-14.415 6.025h-40.157c-5.854 0-10.65-2.008-14.445-6.025-3.766-4.016-5.648-9.131-5.648-15.375v-385.509c0-6.276 1.883-11.39 5.648-15.407 3.795-4.016 8.59-6.025 14.445-6.025z" />
<glyph unicode="&#xe952;" glyph-name="leaves" horiz-adv-x="1164" d="M1152.399 908.795l-0.716 25.764-24.826 6.268c-2.978 0.753-73.978 18.418-166.612 19.152-125.21 0.941-230.328-29.997-304.061-89.618l-14.449-11.688c-54.264-43.878-88.31-106.413-95.866-176.081-7.185-66.204 10.388-131.311 49.546-184.515v-127.517c-10.458 10.391-21.233 19.658-32.31 27.802-30.557 109.74-141.665 177.858-253.542 153.032l-14.485-3.214c-180.014-39.948-280.194-254.911-284.367-264.042l-10.71-23.412 19.487-16.709c6.724-5.764 148.825-125.86 306.143-125.86 20.527 0 41.323 2.047 62.102 6.66l14.487 3.214c86.964 19.304 150.061 89.362 165.365 172.445 9.544-11.656 18.823-24.685 27.831-39.068v-320.125h67.54v492.764c42.719-27.893 92.301-42.21 142.164-42.21 57.249 0 114.867 18.862 162.878 57.686l14.449 11.688c176.368 142.62 170.297 435.196 169.953 447.582zM387.68 194.451l-14.485-3.214c-115.628-25.658-240.057 52.855-288.729 88.238 29.407 52.733 109.539 176.631 225.146 202.292l14.485 3.214c53.364 11.84 106.441-7.161 140.913-45.116-111.515 16.697-211.818-59.594-266.364-101.097l40.718-54.267c47.617 36.233 136.242 103.674 221.833 87.050 14.177-2.754 28.007-7.789 41.463-15.054 8.479-74.712-40.488-145.511-114.979-162.045zM940.159 514.244l-14.451-11.688c-40.196-32.504-90.559-47.304-141.804-41.662-46.071 5.069-87.864 26.15-119.297 59.76 24.817 147.308 191.875 189.656 282.839 212.703l-16.475 65.962c-50.316-12.748-126.351-32.010-193.928-72.996-55.128-33.438-94.541-75.428-117.89-125.413-6.724 23.815-8.898 48.947-6.145 74.301 5.598 51.608 30.818 97.928 71.016 130.436l14.449 11.685c76.015 61.469 180.435 74.659 256.003 74.659 1.243 0 2.481-0.005 3.705-0.011 53.112-0.301 99.119-6.871 126.273-11.781-1.098-27.768-4.666-74.419-15.842-126.705-15.955-74.662-51.192-176.772-128.451-239.252z" />
<glyph unicode="&#xe953;" glyph-name="filter" d="M362.090-22.862v504.146l-351.11 408.148c-18.791 23.099-16.679 70.568 31.881 70.568h936.576c45.604 0 56.161-41.959 31.881-70.568l-342.665-397.341v-311.939c0-12.715-4.223-23.523-14.99-31.999l-219.154-203.015c-25.336-18.86-72.418-8.689-72.418 31.999zM136.603 874.386l300.228-348.176c6.334-8.477 10.557-17.165 10.557-27.761v-425.101l136.179 123.97v309.608c0 10.596 4.223 19.284 10.557 27.761l291.571 339.7h-749.092z" />
<glyph unicode="&#xe954;" glyph-name="aspas" horiz-adv-x="1260" d="M990.486-64c-129.788 0-310.808 99.235-310.808 396.939 0 359.298 239.083 547.502 317.639 612.518 23.908 17.109 47.817 23.953 75.14-6.844l51.232-51.328c23.908-27.375 17.077-58.172-3.415-75.281-37.57-27.375-239.083-177.938-242.498-410.627 0 0 58.063 23.953 136.619 23.953 133.203 0 245.914-106.079 245.914-242.954 0-133.454-112.71-246.376-269.822-246.376zM310.808-64c-129.788 0-310.808 99.235-310.808 396.939 0 359.298 239.083 547.502 317.639 612.518 23.908 17.109 47.817 23.953 75.14-6.844l51.232-51.328c23.908-27.375 17.077-58.172-3.415-75.281-37.57-27.375-239.083-177.938-242.498-410.627 0 0 58.063 23.953 136.619 23.953 133.203 0 245.914-106.079 245.914-242.954 0-133.454-112.71-246.376-269.822-246.376z" />
</font>
</defs>
</svg>
